{
	"patcher" : 	{
		"fileversion" : 1,
		"rect" : [ 139.0, 44.0, 1269.0, 725.0 ],
		"bglocked" : 0,
		"defrect" : [ 139.0, 44.0, 1269.0, 725.0 ],
		"openrect" : [ 0.0, 0.0, 0.0, 0.0 ],
		"openinpresentation" : 0,
		"default_fontsize" : 12.0,
		"default_fontface" : 0,
		"default_fontname" : "Arial",
		"gridonopen" : 0,
		"gridsize" : [ 15.0, 15.0 ],
		"gridsnaponopen" : 0,
		"toolbarvisible" : 1,
		"boxanimatetime" : 200,
		"imprint" : 0,
		"metadata" : [  ],
		"boxes" : [ 			{
				"box" : 				{
					"maxclass" : "newobj",
					"text" : "p aux dist mm",
					"numinlets" : 1,
					"patching_rect" : [ 67.0, 255.0, 85.0, 20.0 ],
					"numoutlets" : 4,
					"id" : "obj-33",
					"fontname" : "Arial",
					"outlettype" : [ "signal", "signal", "signal", "signal" ],
					"fontsize" : 12.0,
					"patcher" : 					{
						"fileversion" : 1,
						"rect" : [ 25.0, 69.0, 741.0, 390.0 ],
						"bglocked" : 0,
						"defrect" : [ 25.0, 69.0, 741.0, 390.0 ],
						"openrect" : [ 0.0, 0.0, 0.0, 0.0 ],
						"openinpresentation" : 0,
						"default_fontsize" : 12.0,
						"default_fontface" : 0,
						"default_fontname" : "Arial",
						"gridonopen" : 0,
						"gridsize" : [ 15.0, 15.0 ],
						"gridsnaponopen" : 0,
						"toolbarvisible" : 1,
						"boxanimatetime" : 200,
						"imprint" : 0,
						"metadata" : [  ],
						"boxes" : [ 							{
								"box" : 								{
									"maxclass" : "newobj",
									"text" : "r distlevel",
									"numinlets" : 0,
									"patching_rect" : [ 145.0, 50.0, 61.0, 20.0 ],
									"numoutlets" : 1,
									"id" : "obj-15",
									"fontname" : "Arial",
									"outlettype" : [ "" ],
									"fontsize" : 12.0
								}

							}
, 							{
								"box" : 								{
									"maxclass" : "flonum",
									"numinlets" : 1,
									"patching_rect" : [ 154.0, 98.0, 50.0, 20.0 ],
									"numoutlets" : 2,
									"id" : "obj-14",
									"fontname" : "Arial",
									"outlettype" : [ "float", "bang" ],
									"fontsize" : 12.0
								}

							}
, 							{
								"box" : 								{
									"maxclass" : "newobj",
									"text" : "*~ 0.",
									"numinlets" : 2,
									"patching_rect" : [ 193.0, 144.0, 36.0, 20.0 ],
									"numoutlets" : 1,
									"id" : "obj-12",
									"fontname" : "Arial",
									"outlettype" : [ "signal" ],
									"fontsize" : 12.0
								}

							}
, 							{
								"box" : 								{
									"maxclass" : "outlet",
									"numinlets" : 1,
									"patching_rect" : [ 306.0, 265.0, 25.0, 25.0 ],
									"numoutlets" : 0,
									"id" : "obj-11",
									"comment" : ""
								}

							}
, 							{
								"box" : 								{
									"maxclass" : "outlet",
									"numinlets" : 1,
									"patching_rect" : [ 274.0, 265.0, 25.0, 25.0 ],
									"numoutlets" : 0,
									"id" : "obj-9",
									"comment" : ""
								}

							}
, 							{
								"box" : 								{
									"maxclass" : "outlet",
									"numinlets" : 1,
									"patching_rect" : [ 242.0, 265.0, 25.0, 25.0 ],
									"numoutlets" : 0,
									"id" : "obj-8",
									"comment" : ""
								}

							}
, 							{
								"box" : 								{
									"maxclass" : "outlet",
									"numinlets" : 1,
									"patching_rect" : [ 210.0, 265.0, 25.0, 25.0 ],
									"numoutlets" : 0,
									"id" : "obj-7",
									"comment" : ""
								}

							}
, 							{
								"box" : 								{
									"maxclass" : "newobj",
									"text" : "loadmess 1",
									"numinlets" : 1,
									"patching_rect" : [ 413.0, 19.0, 72.0, 20.0 ],
									"numoutlets" : 1,
									"id" : "obj-6",
									"fontname" : "Arial",
									"outlettype" : [ "" ],
									"fontsize" : 12.0
								}

							}
, 							{
								"box" : 								{
									"maxclass" : "message",
									"text" : "0, 4. 14000",
									"numinlets" : 2,
									"patching_rect" : [ 306.0, 138.0, 71.0, 18.0 ],
									"numoutlets" : 1,
									"id" : "obj-88",
									"fontname" : "Arial",
									"outlettype" : [ "" ],
									"fontsize" : 12.0
								}

							}
, 							{
								"box" : 								{
									"maxclass" : "newobj",
									"text" : "line~",
									"numinlets" : 2,
									"patching_rect" : [ 306.0, 164.0, 36.0, 20.0 ],
									"numoutlets" : 2,
									"id" : "obj-89",
									"fontname" : "Arial",
									"outlettype" : [ "signal", "bang" ],
									"fontsize" : 12.0
								}

							}
, 							{
								"box" : 								{
									"maxclass" : "newobj",
									"text" : "metro 15000",
									"numinlets" : 2,
									"patching_rect" : [ 413.0, 77.0, 78.0, 20.0 ],
									"numoutlets" : 1,
									"id" : "obj-20",
									"fontname" : "Arial",
									"outlettype" : [ "bang" ],
									"fontsize" : 12.0
								}

							}
, 							{
								"box" : 								{
									"maxclass" : "toggle",
									"numinlets" : 1,
									"patching_rect" : [ 413.0, 50.0, 20.0, 20.0 ],
									"numoutlets" : 1,
									"id" : "obj-19",
									"outlettype" : [ "int" ]
								}

							}
, 							{
								"box" : 								{
									"maxclass" : "newobj",
									"text" : "*~ 0.25",
									"numinlets" : 2,
									"patching_rect" : [ 20.0, 105.0, 49.0, 20.0 ],
									"numoutlets" : 1,
									"id" : "obj-4",
									"fontname" : "Arial",
									"outlettype" : [ "signal" ],
									"fontsize" : 12.0
								}

							}
, 							{
								"box" : 								{
									"maxclass" : "newobj",
									"text" : "*~ 0.125",
									"numinlets" : 2,
									"patching_rect" : [ 20.0, 81.0, 56.0, 20.0 ],
									"numoutlets" : 1,
									"id" : "obj-3",
									"fontname" : "Arial",
									"outlettype" : [ "signal" ],
									"fontsize" : 12.0
								}

							}
, 							{
								"box" : 								{
									"maxclass" : "newobj",
									"text" : "*~ 0.5",
									"numinlets" : 2,
									"patching_rect" : [ 210.0, 100.0, 42.0, 20.0 ],
									"numoutlets" : 1,
									"id" : "obj-26",
									"fontname" : "Arial",
									"outlettype" : [ "signal" ],
									"fontsize" : 12.0
								}

							}
, 							{
								"box" : 								{
									"maxclass" : "newobj",
									"text" : "+~",
									"numinlets" : 2,
									"patching_rect" : [ 210.0, 77.0, 32.5, 20.0 ],
									"numoutlets" : 1,
									"id" : "obj-25",
									"fontname" : "Arial",
									"outlettype" : [ "signal" ],
									"fontsize" : 12.0
								}

							}
, 							{
								"box" : 								{
									"maxclass" : "newobj",
									"text" : "pan4S",
									"numinlets" : 2,
									"patching_rect" : [ 210.0, 203.0, 114.5, 20.0 ],
									"numoutlets" : 4,
									"id" : "obj-24",
									"fontname" : "Arial",
									"outlettype" : [ "signal", "signal", "signal", "signal" ],
									"fontsize" : 12.0
								}

							}
, 							{
								"box" : 								{
									"maxclass" : "newobj",
									"text" : "adc~ 5 6",
									"numinlets" : 1,
									"patching_rect" : [ 210.0, 49.0, 57.0, 20.0 ],
									"numoutlets" : 2,
									"id" : "obj-10",
									"fontname" : "Arial",
									"outlettype" : [ "signal", "signal" ],
									"fontsize" : 12.0
								}

							}
, 							{
								"box" : 								{
									"maxclass" : "newobj",
									"text" : "dac~ 5",
									"numinlets" : 1,
									"patching_rect" : [ 20.0, 142.0, 47.0, 20.0 ],
									"numoutlets" : 0,
									"id" : "obj-2",
									"fontname" : "Arial",
									"fontsize" : 12.0
								}

							}
, 							{
								"box" : 								{
									"maxclass" : "inlet",
									"numinlets" : 0,
									"patching_rect" : [ 20.0, 38.0, 25.0, 25.0 ],
									"numoutlets" : 1,
									"id" : "obj-1",
									"outlettype" : [ "signal" ],
									"comment" : ""
								}

							}
 ],
						"lines" : [ 							{
								"patchline" : 								{
									"source" : [ "obj-15", 0 ],
									"destination" : [ "obj-14", 0 ],
									"hidden" : 0,
									"midpoints" : [  ]
								}

							}
, 							{
								"patchline" : 								{
									"source" : [ "obj-14", 0 ],
									"destination" : [ "obj-12", 0 ],
									"hidden" : 0,
									"midpoints" : [  ]
								}

							}
, 							{
								"patchline" : 								{
									"source" : [ "obj-26", 0 ],
									"destination" : [ "obj-12", 1 ],
									"hidden" : 0,
									"midpoints" : [  ]
								}

							}
, 							{
								"patchline" : 								{
									"source" : [ "obj-24", 3 ],
									"destination" : [ "obj-11", 0 ],
									"hidden" : 0,
									"midpoints" : [  ]
								}

							}
, 							{
								"patchline" : 								{
									"source" : [ "obj-24", 2 ],
									"destination" : [ "obj-9", 0 ],
									"hidden" : 0,
									"midpoints" : [  ]
								}

							}
, 							{
								"patchline" : 								{
									"source" : [ "obj-24", 1 ],
									"destination" : [ "obj-8", 0 ],
									"hidden" : 0,
									"midpoints" : [  ]
								}

							}
, 							{
								"patchline" : 								{
									"source" : [ "obj-24", 0 ],
									"destination" : [ "obj-7", 0 ],
									"hidden" : 0,
									"midpoints" : [  ]
								}

							}
, 							{
								"patchline" : 								{
									"source" : [ "obj-89", 0 ],
									"destination" : [ "obj-24", 1 ],
									"hidden" : 0,
									"midpoints" : [  ]
								}

							}
, 							{
								"patchline" : 								{
									"source" : [ "obj-6", 0 ],
									"destination" : [ "obj-19", 0 ],
									"hidden" : 0,
									"midpoints" : [  ]
								}

							}
, 							{
								"patchline" : 								{
									"source" : [ "obj-20", 0 ],
									"destination" : [ "obj-88", 0 ],
									"hidden" : 0,
									"midpoints" : [ 422.5, 124.0, 315.5, 124.0 ]
								}

							}
, 							{
								"patchline" : 								{
									"source" : [ "obj-88", 0 ],
									"destination" : [ "obj-89", 0 ],
									"hidden" : 0,
									"midpoints" : [  ]
								}

							}
, 							{
								"patchline" : 								{
									"source" : [ "obj-19", 0 ],
									"destination" : [ "obj-20", 0 ],
									"hidden" : 0,
									"midpoints" : [  ]
								}

							}
, 							{
								"patchline" : 								{
									"source" : [ "obj-4", 0 ],
									"destination" : [ "obj-2", 0 ],
									"hidden" : 0,
									"midpoints" : [  ]
								}

							}
, 							{
								"patchline" : 								{
									"source" : [ "obj-3", 0 ],
									"destination" : [ "obj-4", 0 ],
									"hidden" : 0,
									"midpoints" : [  ]
								}

							}
, 							{
								"patchline" : 								{
									"source" : [ "obj-1", 0 ],
									"destination" : [ "obj-3", 0 ],
									"hidden" : 0,
									"midpoints" : [  ]
								}

							}
, 							{
								"patchline" : 								{
									"source" : [ "obj-10", 0 ],
									"destination" : [ "obj-25", 0 ],
									"hidden" : 0,
									"midpoints" : [  ]
								}

							}
, 							{
								"patchline" : 								{
									"source" : [ "obj-10", 1 ],
									"destination" : [ "obj-25", 1 ],
									"hidden" : 0,
									"midpoints" : [  ]
								}

							}
, 							{
								"patchline" : 								{
									"source" : [ "obj-25", 0 ],
									"destination" : [ "obj-26", 0 ],
									"hidden" : 0,
									"midpoints" : [  ]
								}

							}
 ]
					}
,
					"saved_object_attributes" : 					{
						"default_fontface" : 0,
						"default_fontname" : "Arial",
						"fontname" : "Arial",
						"default_fontsize" : 12.0,
						"globalpatchername" : "",
						"fontface" : 0,
						"fontsize" : 12.0
					}

				}

			}
, 			{
				"box" : 				{
					"maxclass" : "meter~",
					"numinlets" : 1,
					"patching_rect" : [ 317.0, 428.0, 16.0, 141.0 ],
					"numoutlets" : 1,
					"id" : "obj-29",
					"outlettype" : [ "float" ]
				}

			}
, 			{
				"box" : 				{
					"maxclass" : "meter~",
					"numinlets" : 1,
					"patching_rect" : [ 334.0, 428.0, 16.0, 141.0 ],
					"numoutlets" : 1,
					"id" : "obj-30",
					"outlettype" : [ "float" ]
				}

			}
, 			{
				"box" : 				{
					"maxclass" : "meter~",
					"numinlets" : 1,
					"patching_rect" : [ 352.0, 428.0, 16.0, 141.0 ],
					"numoutlets" : 1,
					"id" : "obj-28",
					"outlettype" : [ "float" ]
				}

			}
, 			{
				"box" : 				{
					"maxclass" : "meter~",
					"numinlets" : 1,
					"patching_rect" : [ 369.0, 428.0, 16.0, 141.0 ],
					"numoutlets" : 1,
					"id" : "obj-27",
					"outlettype" : [ "float" ]
				}

			}
, 			{
				"box" : 				{
					"maxclass" : "gain~",
					"presentation_rect" : [ 643.0, 428.0, 0.0, 0.0 ],
					"numinlets" : 2,
					"patching_rect" : [ 643.0, 428.0, 20.0, 140.0 ],
					"numoutlets" : 2,
					"id" : "obj-18",
					"outlettype" : [ "signal", "int" ]
				}

			}
, 			{
				"box" : 				{
					"maxclass" : "gain~",
					"presentation_rect" : [ 620.0, 428.0, 0.0, 0.0 ],
					"numinlets" : 2,
					"patching_rect" : [ 620.0, 428.0, 20.0, 140.0 ],
					"numoutlets" : 2,
					"id" : "obj-21",
					"outlettype" : [ "signal", "int" ]
				}

			}
, 			{
				"box" : 				{
					"maxclass" : "gain~",
					"presentation_rect" : [ 597.0, 428.0, 0.0, 0.0 ],
					"numinlets" : 2,
					"patching_rect" : [ 597.0, 428.0, 20.0, 140.0 ],
					"numoutlets" : 2,
					"id" : "obj-22",
					"outlettype" : [ "signal", "int" ]
				}

			}
, 			{
				"box" : 				{
					"maxclass" : "gain~",
					"presentation_rect" : [ 574.0, 428.0, 0.0, 0.0 ],
					"numinlets" : 2,
					"patching_rect" : [ 574.0, 428.0, 20.0, 140.0 ],
					"numoutlets" : 2,
					"id" : "obj-23",
					"outlettype" : [ "signal", "int" ]
				}

			}
, 			{
				"box" : 				{
					"maxclass" : "newobj",
					"text" : "p lira sound out",
					"numinlets" : 0,
					"patching_rect" : [ 572.0, 397.0, 93.0, 20.0 ],
					"numoutlets" : 4,
					"id" : "obj-17",
					"fontname" : "Arial",
					"outlettype" : [ "signal", "signal", "signal", "signal" ],
					"fontsize" : 12.0,
					"patcher" : 					{
						"fileversion" : 1,
						"rect" : [ 283.0, 249.0, 513.0, 185.0 ],
						"bglocked" : 0,
						"defrect" : [ 283.0, 249.0, 513.0, 185.0 ],
						"openrect" : [ 0.0, 0.0, 0.0, 0.0 ],
						"openinpresentation" : 0,
						"default_fontsize" : 12.0,
						"default_fontface" : 0,
						"default_fontname" : "Arial",
						"gridonopen" : 0,
						"gridsize" : [ 15.0, 15.0 ],
						"gridsnaponopen" : 0,
						"toolbarvisible" : 1,
						"boxanimatetime" : 200,
						"imprint" : 0,
						"metadata" : [  ],
						"boxes" : [ 							{
								"box" : 								{
									"maxclass" : "outlet",
									"numinlets" : 1,
									"patching_rect" : [ 211.0, 139.0, 25.0, 25.0 ],
									"numoutlets" : 0,
									"id" : "obj-4",
									"comment" : ""
								}

							}
, 							{
								"box" : 								{
									"maxclass" : "outlet",
									"numinlets" : 1,
									"patching_rect" : [ 166.0, 139.0, 25.0, 25.0 ],
									"numoutlets" : 0,
									"id" : "obj-3",
									"comment" : ""
								}

							}
, 							{
								"box" : 								{
									"maxclass" : "outlet",
									"numinlets" : 1,
									"patching_rect" : [ 121.0, 139.0, 25.0, 25.0 ],
									"numoutlets" : 0,
									"id" : "obj-2",
									"comment" : ""
								}

							}
, 							{
								"box" : 								{
									"maxclass" : "outlet",
									"numinlets" : 1,
									"patching_rect" : [ 76.0, 139.0, 25.0, 25.0 ],
									"numoutlets" : 0,
									"id" : "obj-1",
									"comment" : ""
								}

							}
, 							{
								"box" : 								{
									"maxclass" : "newobj",
									"text" : "receive~ rightsurround",
									"numinlets" : 1,
									"patching_rect" : [ 356.0, 15.0, 130.0, 20.0 ],
									"numoutlets" : 1,
									"id" : "obj-14",
									"fontname" : "Arial",
									"outlettype" : [ "signal" ],
									"fontsize" : 12.0
								}

							}
, 							{
								"box" : 								{
									"maxclass" : "newobj",
									"text" : "receive~ leftsurround",
									"numinlets" : 1,
									"patching_rect" : [ 226.0, 15.0, 123.0, 20.0 ],
									"numoutlets" : 1,
									"id" : "obj-15",
									"fontname" : "Arial",
									"outlettype" : [ "signal" ],
									"fontsize" : 12.0
								}

							}
, 							{
								"box" : 								{
									"maxclass" : "newobj",
									"text" : "receive~ right",
									"numinlets" : 1,
									"patching_rect" : [ 95.0, 16.0, 83.0, 20.0 ],
									"numoutlets" : 1,
									"id" : "obj-13",
									"fontname" : "Arial",
									"outlettype" : [ "signal" ],
									"fontsize" : 12.0
								}

							}
, 							{
								"box" : 								{
									"maxclass" : "newobj",
									"text" : "receive~ left",
									"numinlets" : 1,
									"patching_rect" : [ 14.0, 16.0, 76.0, 20.0 ],
									"numoutlets" : 1,
									"id" : "obj-16",
									"fontname" : "Arial",
									"outlettype" : [ "signal" ],
									"fontsize" : 12.0
								}

							}
 ],
						"lines" : [ 							{
								"patchline" : 								{
									"source" : [ "obj-14", 0 ],
									"destination" : [ "obj-4", 0 ],
									"hidden" : 0,
									"midpoints" : [  ]
								}

							}
, 							{
								"patchline" : 								{
									"source" : [ "obj-15", 0 ],
									"destination" : [ "obj-3", 0 ],
									"hidden" : 0,
									"midpoints" : [  ]
								}

							}
, 							{
								"patchline" : 								{
									"source" : [ "obj-13", 0 ],
									"destination" : [ "obj-2", 0 ],
									"hidden" : 0,
									"midpoints" : [  ]
								}

							}
, 							{
								"patchline" : 								{
									"source" : [ "obj-16", 0 ],
									"destination" : [ "obj-1", 0 ],
									"hidden" : 0,
									"midpoints" : [  ]
								}

							}
 ]
					}
,
					"saved_object_attributes" : 					{
						"default_fontface" : 0,
						"default_fontname" : "Arial",
						"fontname" : "Arial",
						"default_fontsize" : 12.0,
						"globalpatchername" : "",
						"fontface" : 0,
						"fontsize" : 12.0
					}

				}

			}
, 			{
				"box" : 				{
					"maxclass" : "bpatcher",
					"numinlets" : 0,
					"patching_rect" : [ 948.0, 449.0, 311.0, 273.0 ],
					"numoutlets" : 0,
					"id" : "obj-12",
					"name" : "lira.maxpat",
					"args" : [  ]
				}

			}
, 			{
				"box" : 				{
					"maxclass" : "newobj",
					"text" : "p iphone-control",
					"numinlets" : 0,
					"patching_rect" : [ 984.0, 279.0, 97.0, 20.0 ],
					"numoutlets" : 0,
					"id" : "obj-32",
					"fontname" : "Arial",
					"fontsize" : 12.0,
					"patcher" : 					{
						"fileversion" : 1,
						"rect" : [ 526.0, 303.0, 914.0, 398.0 ],
						"bglocked" : 0,
						"defrect" : [ 526.0, 303.0, 914.0, 398.0 ],
						"openrect" : [ 0.0, 0.0, 0.0, 0.0 ],
						"openinpresentation" : 0,
						"default_fontsize" : 12.0,
						"default_fontface" : 0,
						"default_fontname" : "Arial",
						"gridonopen" : 0,
						"gridsize" : [ 15.0, 15.0 ],
						"gridsnaponopen" : 0,
						"toolbarvisible" : 1,
						"boxanimatetime" : 200,
						"imprint" : 0,
						"metadata" : [  ],
						"boxes" : [ 							{
								"box" : 								{
									"maxclass" : "flonum",
									"numinlets" : 1,
									"patching_rect" : [ 239.0, 95.0, 50.0, 20.0 ],
									"numoutlets" : 2,
									"id" : "obj-46",
									"fontname" : "Arial",
									"outlettype" : [ "float", "bang" ],
									"fontsize" : 12.0
								}

							}
, 							{
								"box" : 								{
									"maxclass" : "newobj",
									"text" : "s distlevel",
									"numinlets" : 1,
									"patching_rect" : [ 174.0, 95.0, 63.0, 20.0 ],
									"numoutlets" : 0,
									"id" : "obj-16",
									"fontname" : "Arial",
									"fontsize" : 12.0
								}

							}
, 							{
								"box" : 								{
									"maxclass" : "newobj",
									"text" : "s analyze",
									"numinlets" : 1,
									"patching_rect" : [ 462.0, 293.0, 61.0, 20.0 ],
									"numoutlets" : 0,
									"id" : "obj-44",
									"fontname" : "Arial",
									"fontsize" : 12.0
								}

							}
, 							{
								"box" : 								{
									"maxclass" : "newobj",
									"text" : "s 8pitch",
									"numinlets" : 1,
									"patching_rect" : [ 342.0, 286.0, 52.0, 20.0 ],
									"numoutlets" : 0,
									"id" : "obj-36",
									"fontname" : "Arial",
									"fontsize" : 12.0
								}

							}
, 							{
								"box" : 								{
									"maxclass" : "newobj",
									"text" : "s 7pitch",
									"numinlets" : 1,
									"patching_rect" : [ 296.0, 286.0, 52.0, 20.0 ],
									"numoutlets" : 0,
									"id" : "obj-37",
									"fontname" : "Arial",
									"fontsize" : 12.0
								}

							}
, 							{
								"box" : 								{
									"maxclass" : "newobj",
									"text" : "s 6pitch",
									"numinlets" : 1,
									"patching_rect" : [ 249.0, 286.0, 52.0, 20.0 ],
									"numoutlets" : 0,
									"id" : "obj-38",
									"fontname" : "Arial",
									"fontsize" : 12.0
								}

							}
, 							{
								"box" : 								{
									"maxclass" : "newobj",
									"text" : "s 5pitch",
									"numinlets" : 1,
									"patching_rect" : [ 202.0, 286.0, 52.0, 20.0 ],
									"numoutlets" : 0,
									"id" : "obj-39",
									"fontname" : "Arial",
									"fontsize" : 12.0
								}

							}
, 							{
								"box" : 								{
									"maxclass" : "newobj",
									"text" : "s 4pitch",
									"numinlets" : 1,
									"patching_rect" : [ 155.0, 286.0, 52.0, 20.0 ],
									"numoutlets" : 0,
									"id" : "obj-40",
									"fontname" : "Arial",
									"fontsize" : 12.0
								}

							}
, 							{
								"box" : 								{
									"maxclass" : "newobj",
									"text" : "s 3pitch",
									"numinlets" : 1,
									"patching_rect" : [ 109.0, 286.0, 52.0, 20.0 ],
									"numoutlets" : 0,
									"id" : "obj-41",
									"fontname" : "Arial",
									"fontsize" : 12.0
								}

							}
, 							{
								"box" : 								{
									"maxclass" : "newobj",
									"text" : "s 2pitch",
									"numinlets" : 1,
									"patching_rect" : [ 62.0, 286.0, 52.0, 20.0 ],
									"numoutlets" : 0,
									"id" : "obj-42",
									"fontname" : "Arial",
									"fontsize" : 12.0
								}

							}
, 							{
								"box" : 								{
									"maxclass" : "newobj",
									"text" : "s 1pitch",
									"numinlets" : 1,
									"patching_rect" : [ 15.0, 286.0, 52.0, 20.0 ],
									"numoutlets" : 0,
									"id" : "obj-43",
									"fontname" : "Arial",
									"fontsize" : 12.0
								}

							}
, 							{
								"box" : 								{
									"maxclass" : "newobj",
									"text" : "s 8startmetro",
									"numinlets" : 1,
									"patching_rect" : [ 775.0, 159.0, 81.0, 20.0 ],
									"numoutlets" : 0,
									"id" : "obj-35",
									"fontname" : "Arial",
									"fontsize" : 12.0
								}

							}
, 							{
								"box" : 								{
									"maxclass" : "newobj",
									"text" : "s 7startmetro",
									"numinlets" : 1,
									"patching_rect" : [ 723.0, 185.0, 81.0, 20.0 ],
									"numoutlets" : 0,
									"id" : "obj-34",
									"fontname" : "Arial",
									"fontsize" : 12.0
								}

							}
, 							{
								"box" : 								{
									"maxclass" : "newobj",
									"text" : "s 6startmetro",
									"numinlets" : 1,
									"patching_rect" : [ 671.0, 159.0, 81.0, 20.0 ],
									"numoutlets" : 0,
									"id" : "obj-33",
									"fontname" : "Arial",
									"fontsize" : 12.0
								}

							}
, 							{
								"box" : 								{
									"maxclass" : "newobj",
									"text" : "s 5startmetro",
									"numinlets" : 1,
									"patching_rect" : [ 619.0, 185.0, 81.0, 20.0 ],
									"numoutlets" : 0,
									"id" : "obj-32",
									"fontname" : "Arial",
									"fontsize" : 12.0
								}

							}
, 							{
								"box" : 								{
									"maxclass" : "newobj",
									"text" : "s 4startmetro",
									"numinlets" : 1,
									"patching_rect" : [ 566.0, 159.0, 81.0, 20.0 ],
									"numoutlets" : 0,
									"id" : "obj-31",
									"fontname" : "Arial",
									"fontsize" : 12.0
								}

							}
, 							{
								"box" : 								{
									"maxclass" : "newobj",
									"text" : "s 3startmetro",
									"numinlets" : 1,
									"patching_rect" : [ 514.0, 185.0, 81.0, 20.0 ],
									"numoutlets" : 0,
									"id" : "obj-30",
									"fontname" : "Arial",
									"fontsize" : 12.0
								}

							}
, 							{
								"box" : 								{
									"maxclass" : "newobj",
									"text" : "s 2startmetro",
									"numinlets" : 1,
									"patching_rect" : [ 462.0, 159.0, 81.0, 20.0 ],
									"numoutlets" : 0,
									"id" : "obj-29",
									"fontname" : "Arial",
									"fontsize" : 12.0
								}

							}
, 							{
								"box" : 								{
									"maxclass" : "newobj",
									"text" : "s 1startmetro",
									"numinlets" : 1,
									"patching_rect" : [ 410.0, 185.0, 81.0, 20.0 ],
									"numoutlets" : 0,
									"id" : "obj-28",
									"fontname" : "Arial",
									"fontsize" : 12.0
								}

							}
, 							{
								"box" : 								{
									"maxclass" : "flonum",
									"numinlets" : 1,
									"patching_rect" : [ 342.0, 193.0, 50.0, 20.0 ],
									"numoutlets" : 2,
									"id" : "obj-24",
									"fontname" : "Arial",
									"outlettype" : [ "float", "bang" ],
									"fontsize" : 12.0
								}

							}
, 							{
								"box" : 								{
									"maxclass" : "flonum",
									"numinlets" : 1,
									"patching_rect" : [ 296.0, 193.0, 50.0, 20.0 ],
									"numoutlets" : 2,
									"id" : "obj-27",
									"fontname" : "Arial",
									"outlettype" : [ "float", "bang" ],
									"fontsize" : 12.0
								}

							}
, 							{
								"box" : 								{
									"maxclass" : "flonum",
									"numinlets" : 1,
									"patching_rect" : [ 249.0, 193.0, 50.0, 20.0 ],
									"numoutlets" : 2,
									"id" : "obj-21",
									"fontname" : "Arial",
									"outlettype" : [ "float", "bang" ],
									"fontsize" : 12.0
								}

							}
, 							{
								"box" : 								{
									"maxclass" : "flonum",
									"numinlets" : 1,
									"patching_rect" : [ 202.0, 193.0, 50.0, 20.0 ],
									"numoutlets" : 2,
									"id" : "obj-22",
									"fontname" : "Arial",
									"outlettype" : [ "float", "bang" ],
									"fontsize" : 12.0
								}

							}
, 							{
								"box" : 								{
									"maxclass" : "flonum",
									"numinlets" : 1,
									"patching_rect" : [ 155.0, 193.0, 50.0, 20.0 ],
									"numoutlets" : 2,
									"id" : "obj-19",
									"fontname" : "Arial",
									"outlettype" : [ "float", "bang" ],
									"fontsize" : 12.0
								}

							}
, 							{
								"box" : 								{
									"maxclass" : "flonum",
									"numinlets" : 1,
									"patching_rect" : [ 109.0, 193.0, 50.0, 20.0 ],
									"numoutlets" : 2,
									"id" : "obj-20",
									"fontname" : "Arial",
									"outlettype" : [ "float", "bang" ],
									"fontsize" : 12.0
								}

							}
, 							{
								"box" : 								{
									"maxclass" : "flonum",
									"numinlets" : 1,
									"patching_rect" : [ 62.0, 193.0, 50.0, 20.0 ],
									"numoutlets" : 2,
									"id" : "obj-18",
									"fontname" : "Arial",
									"outlettype" : [ "float", "bang" ],
									"fontsize" : 12.0
								}

							}
, 							{
								"box" : 								{
									"maxclass" : "flonum",
									"numinlets" : 1,
									"patching_rect" : [ 15.0, 193.0, 50.0, 20.0 ],
									"numoutlets" : 2,
									"id" : "obj-17",
									"fontname" : "Arial",
									"outlettype" : [ "float", "bang" ],
									"fontsize" : 12.0
								}

							}
, 							{
								"box" : 								{
									"maxclass" : "newobj",
									"text" : "s 8vol",
									"numinlets" : 1,
									"patching_rect" : [ 342.0, 166.0, 42.0, 20.0 ],
									"numoutlets" : 0,
									"id" : "obj-15",
									"fontname" : "Arial",
									"fontsize" : 12.0
								}

							}
, 							{
								"box" : 								{
									"maxclass" : "newobj",
									"text" : "s 7vol",
									"numinlets" : 1,
									"patching_rect" : [ 296.0, 166.0, 42.0, 20.0 ],
									"numoutlets" : 0,
									"id" : "obj-14",
									"fontname" : "Arial",
									"fontsize" : 12.0
								}

							}
, 							{
								"box" : 								{
									"maxclass" : "newobj",
									"text" : "s 6vol",
									"numinlets" : 1,
									"patching_rect" : [ 249.0, 166.0, 42.0, 20.0 ],
									"numoutlets" : 0,
									"id" : "obj-13",
									"fontname" : "Arial",
									"fontsize" : 12.0
								}

							}
, 							{
								"box" : 								{
									"maxclass" : "newobj",
									"text" : "s 5vol",
									"numinlets" : 1,
									"patching_rect" : [ 202.0, 166.0, 42.0, 20.0 ],
									"numoutlets" : 0,
									"id" : "obj-11",
									"fontname" : "Arial",
									"fontsize" : 12.0
								}

							}
, 							{
								"box" : 								{
									"maxclass" : "newobj",
									"text" : "s 4vol",
									"numinlets" : 1,
									"patching_rect" : [ 155.0, 166.0, 42.0, 20.0 ],
									"numoutlets" : 0,
									"id" : "obj-10",
									"fontname" : "Arial",
									"fontsize" : 12.0
								}

							}
, 							{
								"box" : 								{
									"maxclass" : "newobj",
									"text" : "s 3vol",
									"numinlets" : 1,
									"patching_rect" : [ 109.0, 166.0, 42.0, 20.0 ],
									"numoutlets" : 0,
									"id" : "obj-9",
									"fontname" : "Arial",
									"fontsize" : 12.0
								}

							}
, 							{
								"box" : 								{
									"maxclass" : "newobj",
									"text" : "s 2vol",
									"numinlets" : 1,
									"patching_rect" : [ 62.0, 166.0, 42.0, 20.0 ],
									"numoutlets" : 0,
									"id" : "obj-8",
									"fontname" : "Arial",
									"fontsize" : 12.0
								}

							}
, 							{
								"box" : 								{
									"maxclass" : "newobj",
									"text" : "s 1vol",
									"numinlets" : 1,
									"patching_rect" : [ 15.0, 166.0, 42.0, 20.0 ],
									"numoutlets" : 0,
									"id" : "obj-7",
									"fontname" : "Arial",
									"fontsize" : 12.0
								}

							}
, 							{
								"box" : 								{
									"maxclass" : "newobj",
									"text" : "OSC-route /toggle1 /toggle2 /toggle3 /toggle4 /toggle5 /toggle6 /toggle7 /toggle8",
									"numinlets" : 1,
									"patching_rect" : [ 410.0, 255.0, 436.0, 20.0 ],
									"numoutlets" : 9,
									"id" : "obj-5",
									"fontname" : "Arial",
									"outlettype" : [ "list", "list", "list", "list", "list", "list", "list", "list", "list" ],
									"fontsize" : 12.0
								}

							}
, 							{
								"box" : 								{
									"maxclass" : "newobj",
									"text" : "OSC-route /fader1 /fader2 /fader3 /fader4 /fader5 /fader6 /fader7 /fader8",
									"numinlets" : 1,
									"patching_rect" : [ 15.0, 255.0, 393.0, 20.0 ],
									"numoutlets" : 9,
									"id" : "obj-6",
									"fontname" : "Arial",
									"outlettype" : [ "list", "list", "list", "list", "list", "list", "list", "list", "list" ],
									"fontsize" : 12.0
								}

							}
, 							{
								"box" : 								{
									"maxclass" : "newobj",
									"text" : "OSC-route /toggle1 /toggle2 /toggle3 /toggle4 /toggle5 /toggle6 /toggle7 /toggle8",
									"numinlets" : 1,
									"patching_rect" : [ 410.0, 135.0, 436.0, 20.0 ],
									"numoutlets" : 9,
									"id" : "obj-4",
									"fontname" : "Arial",
									"outlettype" : [ "list", "list", "list", "list", "list", "list", "list", "list", "list" ],
									"fontsize" : 12.0
								}

							}
, 							{
								"box" : 								{
									"maxclass" : "newobj",
									"text" : "OSC-route /fader1 /fader2 /fader3 /fader4 /fader5 /fader6 /fader7 /fader8",
									"numinlets" : 1,
									"patching_rect" : [ 15.0, 135.0, 393.0, 20.0 ],
									"numoutlets" : 9,
									"id" : "obj-3",
									"fontname" : "Arial",
									"outlettype" : [ "list", "list", "list", "list", "list", "list", "list", "list", "list" ],
									"fontsize" : 12.0
								}

							}
, 							{
								"box" : 								{
									"maxclass" : "newobj",
									"text" : "OSC-route /xy",
									"numinlets" : 1,
									"patching_rect" : [ 740.0, 66.0, 87.0, 20.0 ],
									"numoutlets" : 2,
									"id" : "obj-2",
									"fontname" : "Arial",
									"outlettype" : [ "list", "list" ],
									"fontsize" : 12.0
								}

							}
, 							{
								"box" : 								{
									"maxclass" : "newobj",
									"text" : "OSC-route /toggle1 /toggle2 /toggle3",
									"numinlets" : 1,
									"patching_rect" : [ 529.0, 66.0, 206.0, 20.0 ],
									"numoutlets" : 4,
									"id" : "obj-25",
									"fontname" : "Arial",
									"outlettype" : [ "list", "list", "list", "list" ],
									"fontsize" : 12.0
								}

							}
, 							{
								"box" : 								{
									"maxclass" : "newobj",
									"text" : "OSC-route /push1 /push2 /push3 /push4 /push5",
									"numinlets" : 1,
									"patching_rect" : [ 258.0, 66.0, 265.0, 20.0 ],
									"numoutlets" : 6,
									"id" : "obj-23",
									"fontname" : "Arial",
									"outlettype" : [ "list", "list", "list", "list", "list", "list" ],
									"fontsize" : 12.0
								}

							}
, 							{
								"box" : 								{
									"maxclass" : "newobj",
									"text" : "OSC-route /1 /2 /3 /4",
									"numinlets" : 1,
									"patching_rect" : [ 15.0, 35.0, 391.0, 17.0 ],
									"numoutlets" : 5,
									"id" : "obj-12",
									"fontname" : "Arial",
									"outlettype" : [ "list", "list", "list", "list", "list" ],
									"fontsize" : 9.0
								}

							}
, 							{
								"box" : 								{
									"maxclass" : "newobj",
									"text" : "OSC-route /fader1 /fader2 /fader3 /fader4",
									"numinlets" : 1,
									"patching_rect" : [ 15.0, 66.0, 231.0, 20.0 ],
									"numoutlets" : 5,
									"id" : "obj-26",
									"fontname" : "Arial",
									"outlettype" : [ "list", "list", "list", "list", "list" ],
									"fontsize" : 12.0
								}

							}
, 							{
								"box" : 								{
									"maxclass" : "newobj",
									"text" : "udpreceive 8000",
									"numinlets" : 1,
									"patching_rect" : [ 15.0, 12.0, 86.0, 17.0 ],
									"numoutlets" : 1,
									"id" : "obj-1",
									"fontname" : "Arial",
									"outlettype" : [ "" ],
									"fontsize" : 9.0
								}

							}
 ],
						"lines" : [ 							{
								"patchline" : 								{
									"source" : [ "obj-26", 3 ],
									"destination" : [ "obj-46", 0 ],
									"hidden" : 0,
									"midpoints" : [  ]
								}

							}
, 							{
								"patchline" : 								{
									"source" : [ "obj-26", 3 ],
									"destination" : [ "obj-16", 0 ],
									"hidden" : 0,
									"midpoints" : [  ]
								}

							}
, 							{
								"patchline" : 								{
									"source" : [ "obj-23", 0 ],
									"destination" : [ "obj-44", 0 ],
									"hidden" : 0,
									"midpoints" : [  ]
								}

							}
, 							{
								"patchline" : 								{
									"source" : [ "obj-6", 7 ],
									"destination" : [ "obj-36", 0 ],
									"hidden" : 0,
									"midpoints" : [  ]
								}

							}
, 							{
								"patchline" : 								{
									"source" : [ "obj-6", 6 ],
									"destination" : [ "obj-37", 0 ],
									"hidden" : 0,
									"midpoints" : [  ]
								}

							}
, 							{
								"patchline" : 								{
									"source" : [ "obj-6", 5 ],
									"destination" : [ "obj-38", 0 ],
									"hidden" : 0,
									"midpoints" : [  ]
								}

							}
, 							{
								"patchline" : 								{
									"source" : [ "obj-6", 4 ],
									"destination" : [ "obj-39", 0 ],
									"hidden" : 0,
									"midpoints" : [  ]
								}

							}
, 							{
								"patchline" : 								{
									"source" : [ "obj-6", 3 ],
									"destination" : [ "obj-40", 0 ],
									"hidden" : 0,
									"midpoints" : [  ]
								}

							}
, 							{
								"patchline" : 								{
									"source" : [ "obj-6", 2 ],
									"destination" : [ "obj-41", 0 ],
									"hidden" : 0,
									"midpoints" : [  ]
								}

							}
, 							{
								"patchline" : 								{
									"source" : [ "obj-6", 1 ],
									"destination" : [ "obj-42", 0 ],
									"hidden" : 0,
									"midpoints" : [  ]
								}

							}
, 							{
								"patchline" : 								{
									"source" : [ "obj-6", 0 ],
									"destination" : [ "obj-43", 0 ],
									"hidden" : 0,
									"midpoints" : [  ]
								}

							}
, 							{
								"patchline" : 								{
									"source" : [ "obj-4", 7 ],
									"destination" : [ "obj-35", 0 ],
									"hidden" : 0,
									"midpoints" : [  ]
								}

							}
, 							{
								"patchline" : 								{
									"source" : [ "obj-4", 6 ],
									"destination" : [ "obj-34", 0 ],
									"hidden" : 0,
									"midpoints" : [  ]
								}

							}
, 							{
								"patchline" : 								{
									"source" : [ "obj-4", 5 ],
									"destination" : [ "obj-33", 0 ],
									"hidden" : 0,
									"midpoints" : [  ]
								}

							}
, 							{
								"patchline" : 								{
									"source" : [ "obj-4", 4 ],
									"destination" : [ "obj-32", 0 ],
									"hidden" : 0,
									"midpoints" : [  ]
								}

							}
, 							{
								"patchline" : 								{
									"source" : [ "obj-4", 3 ],
									"destination" : [ "obj-31", 0 ],
									"hidden" : 0,
									"midpoints" : [  ]
								}

							}
, 							{
								"patchline" : 								{
									"source" : [ "obj-4", 2 ],
									"destination" : [ "obj-30", 0 ],
									"hidden" : 0,
									"midpoints" : [  ]
								}

							}
, 							{
								"patchline" : 								{
									"source" : [ "obj-4", 1 ],
									"destination" : [ "obj-29", 0 ],
									"hidden" : 0,
									"midpoints" : [  ]
								}

							}
, 							{
								"patchline" : 								{
									"source" : [ "obj-4", 0 ],
									"destination" : [ "obj-28", 0 ],
									"hidden" : 0,
									"midpoints" : [  ]
								}

							}
, 							{
								"patchline" : 								{
									"source" : [ "obj-1", 0 ],
									"destination" : [ "obj-12", 0 ],
									"hidden" : 0,
									"midpoints" : [  ]
								}

							}
, 							{
								"patchline" : 								{
									"source" : [ "obj-23", 5 ],
									"destination" : [ "obj-25", 0 ],
									"hidden" : 0,
									"midpoints" : [  ]
								}

							}
, 							{
								"patchline" : 								{
									"source" : [ "obj-25", 3 ],
									"destination" : [ "obj-2", 0 ],
									"hidden" : 0,
									"midpoints" : [  ]
								}

							}
, 							{
								"patchline" : 								{
									"source" : [ "obj-12", 0 ],
									"destination" : [ "obj-26", 0 ],
									"hidden" : 0,
									"midpoints" : [  ]
								}

							}
, 							{
								"patchline" : 								{
									"source" : [ "obj-26", 4 ],
									"destination" : [ "obj-23", 0 ],
									"hidden" : 0,
									"midpoints" : [  ]
								}

							}
, 							{
								"patchline" : 								{
									"source" : [ "obj-12", 1 ],
									"destination" : [ "obj-3", 0 ],
									"hidden" : 0,
									"midpoints" : [  ]
								}

							}
, 							{
								"patchline" : 								{
									"source" : [ "obj-3", 8 ],
									"destination" : [ "obj-4", 0 ],
									"hidden" : 0,
									"midpoints" : [  ]
								}

							}
, 							{
								"patchline" : 								{
									"source" : [ "obj-6", 8 ],
									"destination" : [ "obj-5", 0 ],
									"hidden" : 0,
									"midpoints" : [  ]
								}

							}
, 							{
								"patchline" : 								{
									"source" : [ "obj-12", 2 ],
									"destination" : [ "obj-6", 0 ],
									"hidden" : 0,
									"midpoints" : [  ]
								}

							}
, 							{
								"patchline" : 								{
									"source" : [ "obj-3", 0 ],
									"destination" : [ "obj-7", 0 ],
									"hidden" : 0,
									"midpoints" : [  ]
								}

							}
, 							{
								"patchline" : 								{
									"source" : [ "obj-3", 1 ],
									"destination" : [ "obj-8", 0 ],
									"hidden" : 0,
									"midpoints" : [  ]
								}

							}
, 							{
								"patchline" : 								{
									"source" : [ "obj-3", 2 ],
									"destination" : [ "obj-9", 0 ],
									"hidden" : 0,
									"midpoints" : [  ]
								}

							}
, 							{
								"patchline" : 								{
									"source" : [ "obj-3", 3 ],
									"destination" : [ "obj-10", 0 ],
									"hidden" : 0,
									"midpoints" : [  ]
								}

							}
, 							{
								"patchline" : 								{
									"source" : [ "obj-3", 4 ],
									"destination" : [ "obj-11", 0 ],
									"hidden" : 0,
									"midpoints" : [  ]
								}

							}
, 							{
								"patchline" : 								{
									"source" : [ "obj-3", 5 ],
									"destination" : [ "obj-13", 0 ],
									"hidden" : 0,
									"midpoints" : [  ]
								}

							}
, 							{
								"patchline" : 								{
									"source" : [ "obj-3", 6 ],
									"destination" : [ "obj-14", 0 ],
									"hidden" : 0,
									"midpoints" : [  ]
								}

							}
, 							{
								"patchline" : 								{
									"source" : [ "obj-3", 7 ],
									"destination" : [ "obj-15", 0 ],
									"hidden" : 0,
									"midpoints" : [  ]
								}

							}
, 							{
								"patchline" : 								{
									"source" : [ "obj-3", 0 ],
									"destination" : [ "obj-17", 0 ],
									"hidden" : 0,
									"midpoints" : [  ]
								}

							}
, 							{
								"patchline" : 								{
									"source" : [ "obj-3", 1 ],
									"destination" : [ "obj-18", 0 ],
									"hidden" : 0,
									"midpoints" : [  ]
								}

							}
, 							{
								"patchline" : 								{
									"source" : [ "obj-3", 2 ],
									"destination" : [ "obj-20", 0 ],
									"hidden" : 0,
									"midpoints" : [  ]
								}

							}
, 							{
								"patchline" : 								{
									"source" : [ "obj-3", 3 ],
									"destination" : [ "obj-19", 0 ],
									"hidden" : 0,
									"midpoints" : [  ]
								}

							}
, 							{
								"patchline" : 								{
									"source" : [ "obj-3", 4 ],
									"destination" : [ "obj-22", 0 ],
									"hidden" : 0,
									"midpoints" : [  ]
								}

							}
, 							{
								"patchline" : 								{
									"source" : [ "obj-3", 5 ],
									"destination" : [ "obj-21", 0 ],
									"hidden" : 0,
									"midpoints" : [  ]
								}

							}
, 							{
								"patchline" : 								{
									"source" : [ "obj-3", 6 ],
									"destination" : [ "obj-27", 0 ],
									"hidden" : 0,
									"midpoints" : [  ]
								}

							}
, 							{
								"patchline" : 								{
									"source" : [ "obj-3", 7 ],
									"destination" : [ "obj-24", 0 ],
									"hidden" : 0,
									"midpoints" : [  ]
								}

							}
 ]
					}
,
					"saved_object_attributes" : 					{
						"default_fontface" : 0,
						"default_fontname" : "Arial",
						"fontname" : "Arial",
						"default_fontsize" : 12.0,
						"globalpatchername" : "",
						"fontface" : 0,
						"fontsize" : 12.0
					}

				}

			}
, 			{
				"box" : 				{
					"maxclass" : "meter~",
					"numinlets" : 1,
					"patching_rect" : [ 336.0, 72.0, 80.0, 13.0 ],
					"numoutlets" : 1,
					"id" : "obj-31",
					"outlettype" : [ "float" ]
				}

			}
, 			{
				"box" : 				{
					"maxclass" : "message",
					"text" : "0, -1. 15000",
					"numinlets" : 2,
					"patching_rect" : [ 934.0, 137.0, 75.0, 18.0 ],
					"numoutlets" : 1,
					"id" : "obj-88",
					"fontname" : "Arial",
					"outlettype" : [ "" ],
					"fontsize" : 12.0
				}

			}
, 			{
				"box" : 				{
					"maxclass" : "newobj",
					"text" : "line~",
					"numinlets" : 2,
					"patching_rect" : [ 929.0, 161.0, 36.0, 20.0 ],
					"numoutlets" : 2,
					"id" : "obj-89",
					"fontname" : "Arial",
					"outlettype" : [ "signal", "bang" ],
					"fontsize" : 12.0
				}

			}
, 			{
				"box" : 				{
					"maxclass" : "message",
					"text" : "0, -8. 15000",
					"numinlets" : 2,
					"patching_rect" : [ 857.0, 136.0, 75.0, 18.0 ],
					"numoutlets" : 1,
					"id" : "obj-90",
					"fontname" : "Arial",
					"outlettype" : [ "" ],
					"fontsize" : 12.0
				}

			}
, 			{
				"box" : 				{
					"maxclass" : "newobj",
					"text" : "line~",
					"numinlets" : 2,
					"patching_rect" : [ 854.0, 161.0, 36.0, 20.0 ],
					"numoutlets" : 2,
					"id" : "obj-91",
					"fontname" : "Arial",
					"outlettype" : [ "signal", "bang" ],
					"fontsize" : 12.0
				}

			}
, 			{
				"box" : 				{
					"maxclass" : "message",
					"text" : "0, 7. 15000",
					"numinlets" : 2,
					"patching_rect" : [ 784.0, 137.0, 71.0, 18.0 ],
					"numoutlets" : 1,
					"id" : "obj-92",
					"fontname" : "Arial",
					"outlettype" : [ "" ],
					"fontsize" : 12.0
				}

			}
, 			{
				"box" : 				{
					"maxclass" : "newobj",
					"text" : "line~",
					"numinlets" : 2,
					"patching_rect" : [ 779.0, 161.0, 36.0, 20.0 ],
					"numoutlets" : 2,
					"id" : "obj-93",
					"fontname" : "Arial",
					"outlettype" : [ "signal", "bang" ],
					"fontsize" : 12.0
				}

			}
, 			{
				"box" : 				{
					"maxclass" : "message",
					"text" : "0, -6. 15000",
					"numinlets" : 2,
					"patching_rect" : [ 708.0, 137.0, 75.0, 18.0 ],
					"numoutlets" : 1,
					"id" : "obj-82",
					"fontname" : "Arial",
					"outlettype" : [ "" ],
					"fontsize" : 12.0
				}

			}
, 			{
				"box" : 				{
					"maxclass" : "newobj",
					"text" : "line~",
					"numinlets" : 2,
					"patching_rect" : [ 718.0, 161.0, 36.0, 20.0 ],
					"numoutlets" : 2,
					"id" : "obj-83",
					"fontname" : "Arial",
					"outlettype" : [ "signal", "bang" ],
					"fontsize" : 12.0
				}

			}
, 			{
				"box" : 				{
					"maxclass" : "message",
					"text" : "0, 5. 15000",
					"numinlets" : 2,
					"patching_rect" : [ 635.0, 137.0, 71.0, 18.0 ],
					"numoutlets" : 1,
					"id" : "obj-80",
					"fontname" : "Arial",
					"outlettype" : [ "" ],
					"fontsize" : 12.0
				}

			}
, 			{
				"box" : 				{
					"maxclass" : "newobj",
					"text" : "line~",
					"numinlets" : 2,
					"patching_rect" : [ 643.0, 161.0, 36.0, 20.0 ],
					"numoutlets" : 2,
					"id" : "obj-81",
					"fontname" : "Arial",
					"outlettype" : [ "signal", "bang" ],
					"fontsize" : 12.0
				}

			}
, 			{
				"box" : 				{
					"maxclass" : "message",
					"text" : "0, 4. 15000",
					"numinlets" : 2,
					"patching_rect" : [ 558.0, 137.0, 71.0, 18.0 ],
					"numoutlets" : 1,
					"id" : "obj-78",
					"fontname" : "Arial",
					"outlettype" : [ "" ],
					"fontsize" : 12.0
				}

			}
, 			{
				"box" : 				{
					"maxclass" : "newobj",
					"text" : "line~",
					"numinlets" : 2,
					"patching_rect" : [ 568.0, 161.0, 36.0, 20.0 ],
					"numoutlets" : 2,
					"id" : "obj-79",
					"fontname" : "Arial",
					"outlettype" : [ "signal", "bang" ],
					"fontsize" : 12.0
				}

			}
, 			{
				"box" : 				{
					"maxclass" : "message",
					"text" : "0, -3. 15000",
					"numinlets" : 2,
					"patching_rect" : [ 485.0, 135.0, 75.0, 18.0 ],
					"numoutlets" : 1,
					"id" : "obj-76",
					"fontname" : "Arial",
					"outlettype" : [ "" ],
					"fontsize" : 12.0
				}

			}
, 			{
				"box" : 				{
					"maxclass" : "newobj",
					"text" : "line~",
					"numinlets" : 2,
					"patching_rect" : [ 493.0, 161.0, 36.0, 20.0 ],
					"numoutlets" : 2,
					"id" : "obj-77",
					"fontname" : "Arial",
					"outlettype" : [ "signal", "bang" ],
					"fontsize" : 12.0
				}

			}
, 			{
				"box" : 				{
					"maxclass" : "message",
					"text" : "0, 3. 15000",
					"numinlets" : 2,
					"patching_rect" : [ 408.0, 137.0, 71.0, 18.0 ],
					"numoutlets" : 1,
					"id" : "obj-74",
					"fontname" : "Arial",
					"outlettype" : [ "" ],
					"fontsize" : 12.0
				}

			}
, 			{
				"box" : 				{
					"maxclass" : "newobj",
					"text" : "line~",
					"numinlets" : 2,
					"patching_rect" : [ 418.0, 161.0, 36.0, 20.0 ],
					"numoutlets" : 2,
					"id" : "obj-75",
					"fontname" : "Arial",
					"outlettype" : [ "signal", "bang" ],
					"fontsize" : 12.0
				}

			}
, 			{
				"box" : 				{
					"maxclass" : "newobj",
					"text" : "pan4S",
					"numinlets" : 2,
					"patching_rect" : [ 575.0, 255.0, 59.5, 20.0 ],
					"numoutlets" : 4,
					"id" : "obj-71",
					"fontname" : "Arial",
					"outlettype" : [ "signal", "signal", "signal", "signal" ],
					"fontsize" : 12.0
				}

			}
, 			{
				"box" : 				{
					"maxclass" : "newobj",
					"text" : "pan4S",
					"numinlets" : 2,
					"patching_rect" : [ 515.0, 255.0, 59.5, 20.0 ],
					"numoutlets" : 4,
					"id" : "obj-70",
					"fontname" : "Arial",
					"outlettype" : [ "signal", "signal", "signal", "signal" ],
					"fontsize" : 12.0
				}

			}
, 			{
				"box" : 				{
					"maxclass" : "newobj",
					"text" : "pan4S",
					"numinlets" : 2,
					"patching_rect" : [ 455.0, 255.0, 59.5, 20.0 ],
					"numoutlets" : 4,
					"id" : "obj-69",
					"fontname" : "Arial",
					"outlettype" : [ "signal", "signal", "signal", "signal" ],
					"fontsize" : 12.0
				}

			}
, 			{
				"box" : 				{
					"maxclass" : "newobj",
					"text" : "pan4S",
					"numinlets" : 2,
					"patching_rect" : [ 395.0, 255.0, 59.5, 20.0 ],
					"numoutlets" : 4,
					"id" : "obj-68",
					"fontname" : "Arial",
					"outlettype" : [ "signal", "signal", "signal", "signal" ],
					"fontsize" : 12.0
				}

			}
, 			{
				"box" : 				{
					"maxclass" : "newobj",
					"text" : "pan4S",
					"numinlets" : 2,
					"patching_rect" : [ 336.0, 255.0, 59.5, 20.0 ],
					"numoutlets" : 4,
					"id" : "obj-67",
					"fontname" : "Arial",
					"outlettype" : [ "signal", "signal", "signal", "signal" ],
					"fontsize" : 12.0
				}

			}
, 			{
				"box" : 				{
					"maxclass" : "newobj",
					"text" : "pan4S",
					"numinlets" : 2,
					"patching_rect" : [ 275.0, 255.0, 59.5, 20.0 ],
					"numoutlets" : 4,
					"id" : "obj-66",
					"fontname" : "Arial",
					"outlettype" : [ "signal", "signal", "signal", "signal" ],
					"fontsize" : 12.0
				}

			}
, 			{
				"box" : 				{
					"maxclass" : "newobj",
					"text" : "pan4S",
					"numinlets" : 2,
					"patching_rect" : [ 216.0, 255.0, 59.5, 20.0 ],
					"numoutlets" : 4,
					"id" : "obj-65",
					"fontname" : "Arial",
					"outlettype" : [ "signal", "signal", "signal", "signal" ],
					"fontsize" : 12.0
				}

			}
, 			{
				"box" : 				{
					"maxclass" : "newobj",
					"text" : "pan4S",
					"numinlets" : 2,
					"patching_rect" : [ 155.0, 255.0, 59.5, 20.0 ],
					"numoutlets" : 4,
					"id" : "obj-63",
					"fontname" : "Arial",
					"outlettype" : [ "signal", "signal", "signal", "signal" ],
					"fontsize" : 12.0
				}

			}
, 			{
				"box" : 				{
					"maxclass" : "newobj",
					"text" : "metro 15000",
					"numinlets" : 2,
					"patching_rect" : [ 1041.0, 76.0, 78.0, 20.0 ],
					"numoutlets" : 1,
					"id" : "obj-20",
					"fontname" : "Arial",
					"outlettype" : [ "bang" ],
					"fontsize" : 12.0
				}

			}
, 			{
				"box" : 				{
					"maxclass" : "toggle",
					"numinlets" : 1,
					"patching_rect" : [ 1039.0, 52.0, 20.0, 20.0 ],
					"numoutlets" : 1,
					"id" : "obj-19",
					"outlettype" : [ "int" ]
				}

			}
, 			{
				"box" : 				{
					"maxclass" : "gain~",
					"numinlets" : 2,
					"patching_rect" : [ 455.0, 428.0, 20.0, 140.0 ],
					"numoutlets" : 2,
					"id" : "obj-8",
					"outlettype" : [ "signal", "int" ]
				}

			}
, 			{
				"box" : 				{
					"maxclass" : "gain~",
					"numinlets" : 2,
					"patching_rect" : [ 432.0, 428.0, 20.0, 140.0 ],
					"numoutlets" : 2,
					"id" : "obj-7",
					"outlettype" : [ "signal", "int" ]
				}

			}
, 			{
				"box" : 				{
					"maxclass" : "gain~",
					"numinlets" : 2,
					"patching_rect" : [ 409.0, 428.0, 20.0, 140.0 ],
					"numoutlets" : 2,
					"id" : "obj-59",
					"outlettype" : [ "signal", "int" ]
				}

			}
, 			{
				"box" : 				{
					"maxclass" : "gain~",
					"numinlets" : 2,
					"patching_rect" : [ 386.0, 428.0, 20.0, 140.0 ],
					"numoutlets" : 2,
					"id" : "obj-60",
					"outlettype" : [ "signal", "int" ]
				}

			}
, 			{
				"box" : 				{
					"maxclass" : "toggle",
					"numinlets" : 1,
					"patching_rect" : [ 318.0, 653.0, 20.0, 20.0 ],
					"numoutlets" : 1,
					"id" : "obj-61",
					"outlettype" : [ "int" ]
				}

			}
, 			{
				"box" : 				{
					"maxclass" : "newobj",
					"text" : "dac~ 1 2 3 4",
					"numinlets" : 4,
					"patching_rect" : [ 379.0, 622.0, 77.0, 20.0 ],
					"numoutlets" : 0,
					"id" : "obj-62",
					"fontname" : "Arial",
					"fontsize" : 12.0
				}

			}
, 			{
				"box" : 				{
					"maxclass" : "newobj",
					"text" : "p mazza rezs",
					"numinlets" : 1,
					"patching_rect" : [ 167.0, 205.5, 401.0, 20.0 ],
					"numoutlets" : 8,
					"id" : "obj-58",
					"fontname" : "Arial",
					"outlettype" : [ "signal", "signal", "signal", "signal", "signal", "signal", "signal", "signal" ],
					"fontsize" : 12.0,
					"patcher" : 					{
						"fileversion" : 1,
						"rect" : [ 1.0, 44.0, 896.0, 432.0 ],
						"bglocked" : 0,
						"defrect" : [ 1.0, 44.0, 896.0, 432.0 ],
						"openrect" : [ 0.0, 0.0, 0.0, 0.0 ],
						"openinpresentation" : 0,
						"default_fontsize" : 12.0,
						"default_fontface" : 0,
						"default_fontname" : "Arial",
						"gridonopen" : 0,
						"gridsize" : [ 15.0, 15.0 ],
						"gridsnaponopen" : 0,
						"toolbarvisible" : 1,
						"boxanimatetime" : 200,
						"imprint" : 0,
						"metadata" : [  ],
						"boxes" : [ 							{
								"box" : 								{
									"maxclass" : "newobj",
									"text" : "resonators~",
									"numinlets" : 1,
									"patching_rect" : [ 403.0, 72.0, 74.0, 20.0 ],
									"numoutlets" : 2,
									"id" : "obj-1",
									"fontname" : "Arial",
									"outlettype" : [ "signal", "list" ],
									"fontsize" : 12.0
								}

							}
, 							{
								"box" : 								{
									"maxclass" : "number",
									"numinlets" : 1,
									"patching_rect" : [ 265.0, 124.0, 50.0, 20.0 ],
									"numoutlets" : 2,
									"id" : "obj-68",
									"fontname" : "Arial",
									"outlettype" : [ "int", "bang" ],
									"fontsize" : 12.0
								}

							}
, 							{
								"box" : 								{
									"maxclass" : "newobj",
									"text" : "gate 8",
									"numinlets" : 2,
									"patching_rect" : [ 174.0, 187.0, 334.5, 20.0 ],
									"numoutlets" : 8,
									"id" : "obj-66",
									"fontname" : "Arial",
									"outlettype" : [ "", "", "", "", "", "", "", "" ],
									"fontsize" : 12.0
								}

							}
, 							{
								"box" : 								{
									"maxclass" : "newobj",
									"text" : "t b i",
									"numinlets" : 1,
									"patching_rect" : [ 174.0, 154.0, 32.5, 20.0 ],
									"numoutlets" : 2,
									"id" : "obj-65",
									"fontname" : "Arial",
									"outlettype" : [ "bang", "int" ],
									"fontsize" : 12.0
								}

							}
, 							{
								"box" : 								{
									"maxclass" : "newobj",
									"text" : "counter 0 1 10",
									"numinlets" : 5,
									"patching_rect" : [ 174.0, 123.0, 87.0, 20.0 ],
									"numoutlets" : 4,
									"id" : "obj-64",
									"fontname" : "Arial",
									"outlettype" : [ "int", "", "", "int" ],
									"fontsize" : 12.0
								}

							}
, 							{
								"box" : 								{
									"maxclass" : "outlet",
									"numinlets" : 1,
									"patching_rect" : [ 489.0, 381.0, 25.0, 25.0 ],
									"numoutlets" : 0,
									"id" : "obj-61",
									"comment" : ""
								}

							}
, 							{
								"box" : 								{
									"maxclass" : "meter~",
									"numinlets" : 1,
									"patching_rect" : [ 500.0, 304.0, 12.0, 77.0 ],
									"numoutlets" : 1,
									"id" : "obj-62",
									"outlettype" : [ "float" ]
								}

							}
, 							{
								"box" : 								{
									"maxclass" : "newobj",
									"text" : "rezn 8",
									"numinlets" : 2,
									"patching_rect" : [ 489.0, 281.0, 44.0, 20.0 ],
									"numoutlets" : 1,
									"id" : "obj-63",
									"fontname" : "Arial",
									"outlettype" : [ "signal" ],
									"fontsize" : 12.0
								}

							}
, 							{
								"box" : 								{
									"maxclass" : "outlet",
									"numinlets" : 1,
									"patching_rect" : [ 444.0, 381.0, 25.0, 25.0 ],
									"numoutlets" : 0,
									"id" : "obj-58",
									"comment" : ""
								}

							}
, 							{
								"box" : 								{
									"maxclass" : "meter~",
									"numinlets" : 1,
									"patching_rect" : [ 455.0, 304.0, 12.0, 77.0 ],
									"numoutlets" : 1,
									"id" : "obj-59",
									"outlettype" : [ "float" ]
								}

							}
, 							{
								"box" : 								{
									"maxclass" : "newobj",
									"text" : "rezn 7",
									"numinlets" : 2,
									"patching_rect" : [ 444.0, 281.0, 44.0, 20.0 ],
									"numoutlets" : 1,
									"id" : "obj-60",
									"fontname" : "Arial",
									"outlettype" : [ "signal" ],
									"fontsize" : 12.0
								}

							}
, 							{
								"box" : 								{
									"maxclass" : "outlet",
									"numinlets" : 1,
									"patching_rect" : [ 399.0, 381.0, 25.0, 25.0 ],
									"numoutlets" : 0,
									"id" : "obj-55",
									"comment" : ""
								}

							}
, 							{
								"box" : 								{
									"maxclass" : "meter~",
									"numinlets" : 1,
									"patching_rect" : [ 410.0, 304.0, 12.0, 77.0 ],
									"numoutlets" : 1,
									"id" : "obj-56",
									"outlettype" : [ "float" ]
								}

							}
, 							{
								"box" : 								{
									"maxclass" : "newobj",
									"text" : "rezn 6",
									"numinlets" : 2,
									"patching_rect" : [ 399.0, 281.0, 44.0, 20.0 ],
									"numoutlets" : 1,
									"id" : "obj-57",
									"fontname" : "Arial",
									"outlettype" : [ "signal" ],
									"fontsize" : 12.0
								}

							}
, 							{
								"box" : 								{
									"maxclass" : "outlet",
									"numinlets" : 1,
									"patching_rect" : [ 354.0, 381.0, 25.0, 25.0 ],
									"numoutlets" : 0,
									"id" : "obj-52",
									"comment" : ""
								}

							}
, 							{
								"box" : 								{
									"maxclass" : "meter~",
									"numinlets" : 1,
									"patching_rect" : [ 365.0, 304.0, 12.0, 77.0 ],
									"numoutlets" : 1,
									"id" : "obj-53",
									"outlettype" : [ "float" ]
								}

							}
, 							{
								"box" : 								{
									"maxclass" : "newobj",
									"text" : "rezn 5",
									"numinlets" : 2,
									"patching_rect" : [ 354.0, 281.0, 44.0, 20.0 ],
									"numoutlets" : 1,
									"id" : "obj-54",
									"fontname" : "Arial",
									"outlettype" : [ "signal" ],
									"fontsize" : 12.0
								}

							}
, 							{
								"box" : 								{
									"maxclass" : "outlet",
									"numinlets" : 1,
									"patching_rect" : [ 309.0, 381.0, 25.0, 25.0 ],
									"numoutlets" : 0,
									"id" : "obj-49",
									"comment" : ""
								}

							}
, 							{
								"box" : 								{
									"maxclass" : "meter~",
									"numinlets" : 1,
									"patching_rect" : [ 320.0, 304.0, 12.0, 77.0 ],
									"numoutlets" : 1,
									"id" : "obj-50",
									"outlettype" : [ "float" ]
								}

							}
, 							{
								"box" : 								{
									"maxclass" : "newobj",
									"text" : "rezn 4",
									"numinlets" : 2,
									"patching_rect" : [ 309.0, 281.0, 44.0, 20.0 ],
									"numoutlets" : 1,
									"id" : "obj-51",
									"fontname" : "Arial",
									"outlettype" : [ "signal" ],
									"fontsize" : 12.0
								}

							}
, 							{
								"box" : 								{
									"maxclass" : "outlet",
									"numinlets" : 1,
									"patching_rect" : [ 264.0, 381.0, 25.0, 25.0 ],
									"numoutlets" : 0,
									"id" : "obj-46",
									"comment" : ""
								}

							}
, 							{
								"box" : 								{
									"maxclass" : "meter~",
									"numinlets" : 1,
									"patching_rect" : [ 275.0, 304.0, 12.0, 77.0 ],
									"numoutlets" : 1,
									"id" : "obj-47",
									"outlettype" : [ "float" ]
								}

							}
, 							{
								"box" : 								{
									"maxclass" : "newobj",
									"text" : "rezn 3",
									"numinlets" : 2,
									"patching_rect" : [ 264.0, 281.0, 44.0, 20.0 ],
									"numoutlets" : 1,
									"id" : "obj-48",
									"fontname" : "Arial",
									"outlettype" : [ "signal" ],
									"fontsize" : 12.0
								}

							}
, 							{
								"box" : 								{
									"maxclass" : "outlet",
									"numinlets" : 1,
									"patching_rect" : [ 219.0, 381.0, 25.0, 25.0 ],
									"numoutlets" : 0,
									"id" : "obj-43",
									"comment" : ""
								}

							}
, 							{
								"box" : 								{
									"maxclass" : "meter~",
									"numinlets" : 1,
									"patching_rect" : [ 230.0, 304.0, 12.0, 77.0 ],
									"numoutlets" : 1,
									"id" : "obj-44",
									"outlettype" : [ "float" ]
								}

							}
, 							{
								"box" : 								{
									"maxclass" : "newobj",
									"text" : "rezn 2",
									"numinlets" : 2,
									"patching_rect" : [ 219.0, 281.0, 44.0, 20.0 ],
									"numoutlets" : 1,
									"id" : "obj-45",
									"fontname" : "Arial",
									"outlettype" : [ "signal" ],
									"fontsize" : 12.0
								}

							}
, 							{
								"box" : 								{
									"maxclass" : "newobj",
									"text" : "r analyze",
									"numinlets" : 0,
									"patching_rect" : [ 174.0, 15.0, 59.0, 20.0 ],
									"numoutlets" : 1,
									"id" : "obj-41",
									"fontname" : "Arial",
									"outlettype" : [ "" ],
									"fontsize" : 12.0
								}

							}
, 							{
								"box" : 								{
									"maxclass" : "outlet",
									"numinlets" : 1,
									"patching_rect" : [ 174.0, 381.0, 25.0, 25.0 ],
									"numoutlets" : 0,
									"id" : "obj-13",
									"comment" : ""
								}

							}
, 							{
								"box" : 								{
									"maxclass" : "meter~",
									"numinlets" : 1,
									"patching_rect" : [ 185.0, 304.0, 12.0, 77.0 ],
									"numoutlets" : 1,
									"id" : "obj-12",
									"outlettype" : [ "float" ]
								}

							}
, 							{
								"box" : 								{
									"maxclass" : "newobj",
									"text" : "sel 32",
									"numinlets" : 2,
									"patching_rect" : [ 113.0, 45.0, 43.0, 20.0 ],
									"numoutlets" : 2,
									"id" : "obj-15",
									"fontname" : "Arial",
									"outlettype" : [ "bang", "" ],
									"fontsize" : 12.0
								}

							}
, 							{
								"box" : 								{
									"maxclass" : "newobj",
									"text" : "key",
									"numinlets" : 0,
									"patching_rect" : [ 113.0, 15.0, 59.5, 20.0 ],
									"numoutlets" : 4,
									"id" : "obj-14",
									"fontname" : "Arial",
									"outlettype" : [ "int", "int", "int", "int" ],
									"fontsize" : 12.0
								}

							}
, 							{
								"box" : 								{
									"maxclass" : "button",
									"numinlets" : 1,
									"patching_rect" : [ 174.0, 72.0, 32.0, 32.0 ],
									"numoutlets" : 1,
									"id" : "obj-120",
									"outlettype" : [ "bang" ]
								}

							}
, 							{
								"box" : 								{
									"maxclass" : "inlet",
									"numinlets" : 0,
									"patching_rect" : [ 831.0, 6.0, 25.0, 25.0 ],
									"numoutlets" : 1,
									"id" : "obj-10",
									"outlettype" : [ "signal" ],
									"comment" : ""
								}

							}
, 							{
								"box" : 								{
									"maxclass" : "newobj",
									"text" : "rezn 1",
									"numinlets" : 2,
									"patching_rect" : [ 174.0, 281.0, 44.0, 20.0 ],
									"numoutlets" : 1,
									"id" : "obj-8",
									"fontname" : "Arial",
									"outlettype" : [ "signal" ],
									"fontsize" : 12.0
								}

							}
 ],
						"lines" : [ 							{
								"patchline" : 								{
									"source" : [ "obj-63", 0 ],
									"destination" : [ "obj-61", 0 ],
									"hidden" : 0,
									"midpoints" : [  ]
								}

							}
, 							{
								"patchline" : 								{
									"source" : [ "obj-63", 0 ],
									"destination" : [ "obj-62", 0 ],
									"hidden" : 0,
									"midpoints" : [  ]
								}

							}
, 							{
								"patchline" : 								{
									"source" : [ "obj-10", 0 ],
									"destination" : [ "obj-63", 1 ],
									"hidden" : 0,
									"midpoints" : [ 840.5, 267.0, 523.5, 267.0 ]
								}

							}
, 							{
								"patchline" : 								{
									"source" : [ "obj-66", 7 ],
									"destination" : [ "obj-63", 0 ],
									"hidden" : 0,
									"midpoints" : [  ]
								}

							}
, 							{
								"patchline" : 								{
									"source" : [ "obj-60", 0 ],
									"destination" : [ "obj-59", 0 ],
									"hidden" : 0,
									"midpoints" : [  ]
								}

							}
, 							{
								"patchline" : 								{
									"source" : [ "obj-60", 0 ],
									"destination" : [ "obj-58", 0 ],
									"hidden" : 0,
									"midpoints" : [  ]
								}

							}
, 							{
								"patchline" : 								{
									"source" : [ "obj-10", 0 ],
									"destination" : [ "obj-60", 1 ],
									"hidden" : 0,
									"midpoints" : [ 840.5, 267.0, 478.5, 267.0 ]
								}

							}
, 							{
								"patchline" : 								{
									"source" : [ "obj-66", 6 ],
									"destination" : [ "obj-60", 0 ],
									"hidden" : 0,
									"midpoints" : [  ]
								}

							}
, 							{
								"patchline" : 								{
									"source" : [ "obj-57", 0 ],
									"destination" : [ "obj-55", 0 ],
									"hidden" : 0,
									"midpoints" : [  ]
								}

							}
, 							{
								"patchline" : 								{
									"source" : [ "obj-57", 0 ],
									"destination" : [ "obj-56", 0 ],
									"hidden" : 0,
									"midpoints" : [  ]
								}

							}
, 							{
								"patchline" : 								{
									"source" : [ "obj-10", 0 ],
									"destination" : [ "obj-57", 1 ],
									"hidden" : 0,
									"midpoints" : [ 840.5, 267.0, 433.5, 267.0 ]
								}

							}
, 							{
								"patchline" : 								{
									"source" : [ "obj-66", 5 ],
									"destination" : [ "obj-57", 0 ],
									"hidden" : 0,
									"midpoints" : [  ]
								}

							}
, 							{
								"patchline" : 								{
									"source" : [ "obj-54", 0 ],
									"destination" : [ "obj-53", 0 ],
									"hidden" : 0,
									"midpoints" : [  ]
								}

							}
, 							{
								"patchline" : 								{
									"source" : [ "obj-54", 0 ],
									"destination" : [ "obj-52", 0 ],
									"hidden" : 0,
									"midpoints" : [  ]
								}

							}
, 							{
								"patchline" : 								{
									"source" : [ "obj-10", 0 ],
									"destination" : [ "obj-54", 1 ],
									"hidden" : 0,
									"midpoints" : [ 840.5, 267.0, 388.5, 267.0 ]
								}

							}
, 							{
								"patchline" : 								{
									"source" : [ "obj-66", 4 ],
									"destination" : [ "obj-54", 0 ],
									"hidden" : 0,
									"midpoints" : [  ]
								}

							}
, 							{
								"patchline" : 								{
									"source" : [ "obj-51", 0 ],
									"destination" : [ "obj-49", 0 ],
									"hidden" : 0,
									"midpoints" : [  ]
								}

							}
, 							{
								"patchline" : 								{
									"source" : [ "obj-51", 0 ],
									"destination" : [ "obj-50", 0 ],
									"hidden" : 0,
									"midpoints" : [  ]
								}

							}
, 							{
								"patchline" : 								{
									"source" : [ "obj-10", 0 ],
									"destination" : [ "obj-51", 1 ],
									"hidden" : 0,
									"midpoints" : [ 840.5, 267.0, 343.5, 267.0 ]
								}

							}
, 							{
								"patchline" : 								{
									"source" : [ "obj-66", 3 ],
									"destination" : [ "obj-51", 0 ],
									"hidden" : 0,
									"midpoints" : [  ]
								}

							}
, 							{
								"patchline" : 								{
									"source" : [ "obj-48", 0 ],
									"destination" : [ "obj-47", 0 ],
									"hidden" : 0,
									"midpoints" : [  ]
								}

							}
, 							{
								"patchline" : 								{
									"source" : [ "obj-48", 0 ],
									"destination" : [ "obj-46", 0 ],
									"hidden" : 0,
									"midpoints" : [  ]
								}

							}
, 							{
								"patchline" : 								{
									"source" : [ "obj-10", 0 ],
									"destination" : [ "obj-48", 1 ],
									"hidden" : 0,
									"midpoints" : [ 840.5, 267.0, 298.5, 267.0 ]
								}

							}
, 							{
								"patchline" : 								{
									"source" : [ "obj-66", 2 ],
									"destination" : [ "obj-48", 0 ],
									"hidden" : 0,
									"midpoints" : [  ]
								}

							}
, 							{
								"patchline" : 								{
									"source" : [ "obj-45", 0 ],
									"destination" : [ "obj-44", 0 ],
									"hidden" : 0,
									"midpoints" : [  ]
								}

							}
, 							{
								"patchline" : 								{
									"source" : [ "obj-45", 0 ],
									"destination" : [ "obj-43", 0 ],
									"hidden" : 0,
									"midpoints" : [  ]
								}

							}
, 							{
								"patchline" : 								{
									"source" : [ "obj-10", 0 ],
									"destination" : [ "obj-45", 1 ],
									"hidden" : 0,
									"midpoints" : [ 840.5, 267.0, 253.5, 267.0 ]
								}

							}
, 							{
								"patchline" : 								{
									"source" : [ "obj-66", 1 ],
									"destination" : [ "obj-45", 0 ],
									"hidden" : 0,
									"midpoints" : [  ]
								}

							}
, 							{
								"patchline" : 								{
									"source" : [ "obj-10", 0 ],
									"destination" : [ "obj-8", 1 ],
									"hidden" : 0,
									"midpoints" : [ 840.5, 267.0, 208.5, 267.0 ]
								}

							}
, 							{
								"patchline" : 								{
									"source" : [ "obj-8", 0 ],
									"destination" : [ "obj-12", 0 ],
									"hidden" : 0,
									"midpoints" : [  ]
								}

							}
, 							{
								"patchline" : 								{
									"source" : [ "obj-8", 0 ],
									"destination" : [ "obj-13", 0 ],
									"hidden" : 0,
									"midpoints" : [  ]
								}

							}
, 							{
								"patchline" : 								{
									"source" : [ "obj-66", 0 ],
									"destination" : [ "obj-8", 0 ],
									"hidden" : 0,
									"midpoints" : [  ]
								}

							}
, 							{
								"patchline" : 								{
									"source" : [ "obj-15", 0 ],
									"destination" : [ "obj-120", 0 ],
									"hidden" : 0,
									"midpoints" : [ 122.5, 67.0, 183.5, 67.0 ]
								}

							}
, 							{
								"patchline" : 								{
									"source" : [ "obj-14", 0 ],
									"destination" : [ "obj-15", 0 ],
									"hidden" : 0,
									"midpoints" : [  ]
								}

							}
, 							{
								"patchline" : 								{
									"source" : [ "obj-41", 0 ],
									"destination" : [ "obj-120", 0 ],
									"hidden" : 0,
									"midpoints" : [  ]
								}

							}
, 							{
								"patchline" : 								{
									"source" : [ "obj-120", 0 ],
									"destination" : [ "obj-64", 0 ],
									"hidden" : 0,
									"midpoints" : [  ]
								}

							}
, 							{
								"patchline" : 								{
									"source" : [ "obj-64", 0 ],
									"destination" : [ "obj-65", 0 ],
									"hidden" : 0,
									"midpoints" : [  ]
								}

							}
, 							{
								"patchline" : 								{
									"source" : [ "obj-65", 1 ],
									"destination" : [ "obj-66", 0 ],
									"hidden" : 0,
									"midpoints" : [  ]
								}

							}
, 							{
								"patchline" : 								{
									"source" : [ "obj-65", 0 ],
									"destination" : [ "obj-66", 1 ],
									"hidden" : 0,
									"midpoints" : [  ]
								}

							}
, 							{
								"patchline" : 								{
									"source" : [ "obj-64", 0 ],
									"destination" : [ "obj-68", 0 ],
									"hidden" : 0,
									"midpoints" : [ 183.5, 144.0, 261.0, 144.0, 261.0, 120.0, 274.5, 120.0 ]
								}

							}
 ]
					}
,
					"saved_object_attributes" : 					{
						"default_fontface" : 0,
						"default_fontname" : "Arial",
						"fontname" : "Arial",
						"default_fontsize" : 12.0,
						"globalpatchername" : "",
						"fontface" : 0,
						"fontsize" : 12.0
					}

				}

			}
, 			{
				"box" : 				{
					"maxclass" : "ezdac~",
					"numinlets" : 2,
					"patching_rect" : [ 88.0, 487.0, 45.0, 45.0 ],
					"numoutlets" : 0,
					"id" : "obj-53"
				}

			}
, 			{
				"box" : 				{
					"maxclass" : "newobj",
					"text" : "adc~ 1",
					"numinlets" : 1,
					"patching_rect" : [ 273.0, 13.0, 47.0, 20.0 ],
					"numoutlets" : 1,
					"id" : "obj-9",
					"fontname" : "Arial",
					"outlettype" : [ "signal" ],
					"fontsize" : 12.0
				}

			}
 ],
		"lines" : [ 			{
				"patchline" : 				{
					"source" : [ "obj-33", 3 ],
					"destination" : [ "obj-8", 0 ],
					"hidden" : 0,
					"midpoints" : [  ]
				}

			}
, 			{
				"patchline" : 				{
					"source" : [ "obj-33", 2 ],
					"destination" : [ "obj-7", 1 ],
					"hidden" : 0,
					"midpoints" : [  ]
				}

			}
, 			{
				"patchline" : 				{
					"source" : [ "obj-33", 1 ],
					"destination" : [ "obj-59", 0 ],
					"hidden" : 0,
					"midpoints" : [  ]
				}

			}
, 			{
				"patchline" : 				{
					"source" : [ "obj-33", 0 ],
					"destination" : [ "obj-60", 0 ],
					"hidden" : 0,
					"midpoints" : [  ]
				}

			}
, 			{
				"patchline" : 				{
					"source" : [ "obj-58", 7 ],
					"destination" : [ "obj-33", 0 ],
					"hidden" : 0,
					"midpoints" : [ 558.5, 237.0, 102.0, 237.0, 102.0, 228.0, 76.5, 228.0 ]
				}

			}
, 			{
				"patchline" : 				{
					"source" : [ "obj-58", 6 ],
					"destination" : [ "obj-33", 0 ],
					"hidden" : 0,
					"midpoints" : [ 503.928558, 237.0, 102.0, 237.0, 102.0, 228.0, 76.5, 228.0 ]
				}

			}
, 			{
				"patchline" : 				{
					"source" : [ "obj-58", 5 ],
					"destination" : [ "obj-33", 0 ],
					"hidden" : 0,
					"midpoints" : [ 449.357147, 237.0, 102.0, 237.0, 102.0, 228.0, 76.5, 228.0 ]
				}

			}
, 			{
				"patchline" : 				{
					"source" : [ "obj-58", 4 ],
					"destination" : [ "obj-33", 0 ],
					"hidden" : 0,
					"midpoints" : [ 394.785706, 237.0, 102.0, 237.0, 102.0, 228.0, 76.5, 228.0 ]
				}

			}
, 			{
				"patchline" : 				{
					"source" : [ "obj-58", 3 ],
					"destination" : [ "obj-33", 0 ],
					"hidden" : 0,
					"midpoints" : [ 340.214294, 237.0, 102.0, 237.0, 102.0, 228.0, 76.5, 228.0 ]
				}

			}
, 			{
				"patchline" : 				{
					"source" : [ "obj-58", 2 ],
					"destination" : [ "obj-33", 0 ],
					"hidden" : 0,
					"midpoints" : [ 285.642853, 237.0, 102.0, 237.0, 102.0, 228.0, 76.5, 228.0 ]
				}

			}
, 			{
				"patchline" : 				{
					"source" : [ "obj-58", 1 ],
					"destination" : [ "obj-33", 0 ],
					"hidden" : 0,
					"midpoints" : [ 231.071426, 237.0, 102.0, 237.0, 102.0, 228.0, 76.5, 228.0 ]
				}

			}
, 			{
				"patchline" : 				{
					"source" : [ "obj-58", 0 ],
					"destination" : [ "obj-33", 0 ],
					"hidden" : 0,
					"midpoints" : [ 176.5, 225.0, 76.5, 225.0 ]
				}

			}
, 			{
				"patchline" : 				{
					"source" : [ "obj-8", 0 ],
					"destination" : [ "obj-27", 0 ],
					"hidden" : 1,
					"midpoints" : [  ]
				}

			}
, 			{
				"patchline" : 				{
					"source" : [ "obj-7", 0 ],
					"destination" : [ "obj-28", 0 ],
					"hidden" : 1,
					"midpoints" : [  ]
				}

			}
, 			{
				"patchline" : 				{
					"source" : [ "obj-59", 0 ],
					"destination" : [ "obj-30", 0 ],
					"hidden" : 1,
					"midpoints" : [  ]
				}

			}
, 			{
				"patchline" : 				{
					"source" : [ "obj-60", 0 ],
					"destination" : [ "obj-29", 0 ],
					"hidden" : 1,
					"midpoints" : [  ]
				}

			}
, 			{
				"patchline" : 				{
					"source" : [ "obj-58", 0 ],
					"destination" : [ "obj-63", 0 ],
					"hidden" : 0,
					"midpoints" : [  ]
				}

			}
, 			{
				"patchline" : 				{
					"source" : [ "obj-21", 1 ],
					"destination" : [ "obj-18", 0 ],
					"hidden" : 0,
					"midpoints" : [  ]
				}

			}
, 			{
				"patchline" : 				{
					"source" : [ "obj-23", 1 ],
					"destination" : [ "obj-22", 0 ],
					"hidden" : 0,
					"midpoints" : [  ]
				}

			}
, 			{
				"patchline" : 				{
					"source" : [ "obj-18", 0 ],
					"destination" : [ "obj-62", 3 ],
					"hidden" : 0,
					"midpoints" : [  ]
				}

			}
, 			{
				"patchline" : 				{
					"source" : [ "obj-21", 0 ],
					"destination" : [ "obj-62", 2 ],
					"hidden" : 0,
					"midpoints" : [  ]
				}

			}
, 			{
				"patchline" : 				{
					"source" : [ "obj-22", 0 ],
					"destination" : [ "obj-62", 1 ],
					"hidden" : 0,
					"midpoints" : [  ]
				}

			}
, 			{
				"patchline" : 				{
					"source" : [ "obj-23", 0 ],
					"destination" : [ "obj-62", 0 ],
					"hidden" : 0,
					"midpoints" : [  ]
				}

			}
, 			{
				"patchline" : 				{
					"source" : [ "obj-17", 3 ],
					"destination" : [ "obj-18", 0 ],
					"hidden" : 0,
					"midpoints" : [  ]
				}

			}
, 			{
				"patchline" : 				{
					"source" : [ "obj-17", 2 ],
					"destination" : [ "obj-21", 0 ],
					"hidden" : 0,
					"midpoints" : [  ]
				}

			}
, 			{
				"patchline" : 				{
					"source" : [ "obj-17", 1 ],
					"destination" : [ "obj-22", 0 ],
					"hidden" : 0,
					"midpoints" : [  ]
				}

			}
, 			{
				"patchline" : 				{
					"source" : [ "obj-17", 0 ],
					"destination" : [ "obj-23", 0 ],
					"hidden" : 0,
					"midpoints" : [  ]
				}

			}
, 			{
				"patchline" : 				{
					"source" : [ "obj-9", 0 ],
					"destination" : [ "obj-58", 0 ],
					"hidden" : 0,
					"midpoints" : [  ]
				}

			}
, 			{
				"patchline" : 				{
					"source" : [ "obj-19", 0 ],
					"destination" : [ "obj-20", 0 ],
					"hidden" : 0,
					"midpoints" : [  ]
				}

			}
, 			{
				"patchline" : 				{
					"source" : [ "obj-8", 0 ],
					"destination" : [ "obj-62", 3 ],
					"hidden" : 0,
					"midpoints" : [  ]
				}

			}
, 			{
				"patchline" : 				{
					"source" : [ "obj-7", 0 ],
					"destination" : [ "obj-62", 2 ],
					"hidden" : 0,
					"midpoints" : [  ]
				}

			}
, 			{
				"patchline" : 				{
					"source" : [ "obj-59", 0 ],
					"destination" : [ "obj-62", 1 ],
					"hidden" : 0,
					"midpoints" : [  ]
				}

			}
, 			{
				"patchline" : 				{
					"source" : [ "obj-60", 0 ],
					"destination" : [ "obj-62", 0 ],
					"hidden" : 0,
					"midpoints" : [  ]
				}

			}
, 			{
				"patchline" : 				{
					"source" : [ "obj-61", 0 ],
					"destination" : [ "obj-62", 0 ],
					"hidden" : 0,
					"midpoints" : [  ]
				}

			}
, 			{
				"patchline" : 				{
					"source" : [ "obj-75", 0 ],
					"destination" : [ "obj-63", 1 ],
					"hidden" : 0,
					"midpoints" : [  ]
				}

			}
, 			{
				"patchline" : 				{
					"source" : [ "obj-77", 0 ],
					"destination" : [ "obj-65", 1 ],
					"hidden" : 0,
					"midpoints" : [  ]
				}

			}
, 			{
				"patchline" : 				{
					"source" : [ "obj-79", 0 ],
					"destination" : [ "obj-66", 1 ],
					"hidden" : 0,
					"midpoints" : [  ]
				}

			}
, 			{
				"patchline" : 				{
					"source" : [ "obj-81", 0 ],
					"destination" : [ "obj-67", 1 ],
					"hidden" : 0,
					"midpoints" : [  ]
				}

			}
, 			{
				"patchline" : 				{
					"source" : [ "obj-83", 0 ],
					"destination" : [ "obj-68", 1 ],
					"hidden" : 0,
					"midpoints" : [  ]
				}

			}
, 			{
				"patchline" : 				{
					"source" : [ "obj-93", 0 ],
					"destination" : [ "obj-69", 1 ],
					"hidden" : 0,
					"midpoints" : [  ]
				}

			}
, 			{
				"patchline" : 				{
					"source" : [ "obj-91", 0 ],
					"destination" : [ "obj-70", 1 ],
					"hidden" : 0,
					"midpoints" : [  ]
				}

			}
, 			{
				"patchline" : 				{
					"source" : [ "obj-89", 0 ],
					"destination" : [ "obj-71", 1 ],
					"hidden" : 0,
					"midpoints" : [  ]
				}

			}
, 			{
				"patchline" : 				{
					"source" : [ "obj-92", 0 ],
					"destination" : [ "obj-93", 0 ],
					"hidden" : 0,
					"midpoints" : [  ]
				}

			}
, 			{
				"patchline" : 				{
					"source" : [ "obj-90", 0 ],
					"destination" : [ "obj-91", 0 ],
					"hidden" : 0,
					"midpoints" : [  ]
				}

			}
, 			{
				"patchline" : 				{
					"source" : [ "obj-88", 0 ],
					"destination" : [ "obj-89", 0 ],
					"hidden" : 0,
					"midpoints" : [  ]
				}

			}
, 			{
				"patchline" : 				{
					"source" : [ "obj-82", 0 ],
					"destination" : [ "obj-83", 0 ],
					"hidden" : 0,
					"midpoints" : [  ]
				}

			}
, 			{
				"patchline" : 				{
					"source" : [ "obj-80", 0 ],
					"destination" : [ "obj-81", 0 ],
					"hidden" : 0,
					"midpoints" : [  ]
				}

			}
, 			{
				"patchline" : 				{
					"source" : [ "obj-78", 0 ],
					"destination" : [ "obj-79", 0 ],
					"hidden" : 0,
					"midpoints" : [  ]
				}

			}
, 			{
				"patchline" : 				{
					"source" : [ "obj-76", 0 ],
					"destination" : [ "obj-77", 0 ],
					"hidden" : 0,
					"midpoints" : [  ]
				}

			}
, 			{
				"patchline" : 				{
					"source" : [ "obj-74", 0 ],
					"destination" : [ "obj-75", 0 ],
					"hidden" : 0,
					"midpoints" : [  ]
				}

			}
, 			{
				"patchline" : 				{
					"source" : [ "obj-20", 0 ],
					"destination" : [ "obj-74", 0 ],
					"hidden" : 0,
					"midpoints" : [ 1050.5, 123.0, 417.5, 123.0 ]
				}

			}
, 			{
				"patchline" : 				{
					"source" : [ "obj-20", 0 ],
					"destination" : [ "obj-76", 0 ],
					"hidden" : 0,
					"midpoints" : [ 1050.5, 123.0, 494.5, 123.0 ]
				}

			}
, 			{
				"patchline" : 				{
					"source" : [ "obj-20", 0 ],
					"destination" : [ "obj-78", 0 ],
					"hidden" : 0,
					"midpoints" : [ 1050.5, 123.0, 567.5, 123.0 ]
				}

			}
, 			{
				"patchline" : 				{
					"source" : [ "obj-20", 0 ],
					"destination" : [ "obj-80", 0 ],
					"hidden" : 0,
					"midpoints" : [ 1050.5, 123.0, 644.5, 123.0 ]
				}

			}
, 			{
				"patchline" : 				{
					"source" : [ "obj-20", 0 ],
					"destination" : [ "obj-82", 0 ],
					"hidden" : 0,
					"midpoints" : [ 1050.5, 123.0, 717.5, 123.0 ]
				}

			}
, 			{
				"patchline" : 				{
					"source" : [ "obj-20", 0 ],
					"destination" : [ "obj-92", 0 ],
					"hidden" : 0,
					"midpoints" : [ 1050.5, 123.0, 793.5, 123.0 ]
				}

			}
, 			{
				"patchline" : 				{
					"source" : [ "obj-20", 0 ],
					"destination" : [ "obj-90", 0 ],
					"hidden" : 0,
					"midpoints" : [ 1050.5, 123.0, 866.5, 123.0 ]
				}

			}
, 			{
				"patchline" : 				{
					"source" : [ "obj-20", 0 ],
					"destination" : [ "obj-88", 0 ],
					"hidden" : 0,
					"midpoints" : [ 1050.5, 123.0, 943.5, 123.0 ]
				}

			}
, 			{
				"patchline" : 				{
					"source" : [ "obj-63", 0 ],
					"destination" : [ "obj-60", 0 ],
					"hidden" : 0,
					"midpoints" : [  ]
				}

			}
, 			{
				"patchline" : 				{
					"source" : [ "obj-63", 1 ],
					"destination" : [ "obj-59", 0 ],
					"hidden" : 0,
					"midpoints" : [  ]
				}

			}
, 			{
				"patchline" : 				{
					"source" : [ "obj-63", 2 ],
					"destination" : [ "obj-7", 0 ],
					"hidden" : 0,
					"midpoints" : [  ]
				}

			}
, 			{
				"patchline" : 				{
					"source" : [ "obj-63", 3 ],
					"destination" : [ "obj-8", 0 ],
					"hidden" : 0,
					"midpoints" : [  ]
				}

			}
, 			{
				"patchline" : 				{
					"source" : [ "obj-65", 0 ],
					"destination" : [ "obj-60", 0 ],
					"hidden" : 0,
					"midpoints" : [  ]
				}

			}
, 			{
				"patchline" : 				{
					"source" : [ "obj-65", 1 ],
					"destination" : [ "obj-59", 0 ],
					"hidden" : 0,
					"midpoints" : [  ]
				}

			}
, 			{
				"patchline" : 				{
					"source" : [ "obj-65", 2 ],
					"destination" : [ "obj-7", 0 ],
					"hidden" : 0,
					"midpoints" : [  ]
				}

			}
, 			{
				"patchline" : 				{
					"source" : [ "obj-65", 3 ],
					"destination" : [ "obj-8", 0 ],
					"hidden" : 0,
					"midpoints" : [  ]
				}

			}
, 			{
				"patchline" : 				{
					"source" : [ "obj-66", 0 ],
					"destination" : [ "obj-60", 0 ],
					"hidden" : 0,
					"midpoints" : [  ]
				}

			}
, 			{
				"patchline" : 				{
					"source" : [ "obj-66", 1 ],
					"destination" : [ "obj-59", 0 ],
					"hidden" : 0,
					"midpoints" : [  ]
				}

			}
, 			{
				"patchline" : 				{
					"source" : [ "obj-66", 2 ],
					"destination" : [ "obj-7", 0 ],
					"hidden" : 0,
					"midpoints" : [  ]
				}

			}
, 			{
				"patchline" : 				{
					"source" : [ "obj-66", 3 ],
					"destination" : [ "obj-8", 0 ],
					"hidden" : 0,
					"midpoints" : [  ]
				}

			}
, 			{
				"patchline" : 				{
					"source" : [ "obj-67", 0 ],
					"destination" : [ "obj-60", 0 ],
					"hidden" : 0,
					"midpoints" : [  ]
				}

			}
, 			{
				"patchline" : 				{
					"source" : [ "obj-67", 1 ],
					"destination" : [ "obj-59", 0 ],
					"hidden" : 0,
					"midpoints" : [  ]
				}

			}
, 			{
				"patchline" : 				{
					"source" : [ "obj-67", 2 ],
					"destination" : [ "obj-7", 0 ],
					"hidden" : 0,
					"midpoints" : [  ]
				}

			}
, 			{
				"patchline" : 				{
					"source" : [ "obj-67", 3 ],
					"destination" : [ "obj-8", 0 ],
					"hidden" : 0,
					"midpoints" : [  ]
				}

			}
, 			{
				"patchline" : 				{
					"source" : [ "obj-68", 0 ],
					"destination" : [ "obj-60", 0 ],
					"hidden" : 0,
					"midpoints" : [  ]
				}

			}
, 			{
				"patchline" : 				{
					"source" : [ "obj-68", 1 ],
					"destination" : [ "obj-59", 0 ],
					"hidden" : 0,
					"midpoints" : [  ]
				}

			}
, 			{
				"patchline" : 				{
					"source" : [ "obj-68", 2 ],
					"destination" : [ "obj-7", 0 ],
					"hidden" : 0,
					"midpoints" : [  ]
				}

			}
, 			{
				"patchline" : 				{
					"source" : [ "obj-68", 3 ],
					"destination" : [ "obj-8", 0 ],
					"hidden" : 0,
					"midpoints" : [  ]
				}

			}
, 			{
				"patchline" : 				{
					"source" : [ "obj-69", 0 ],
					"destination" : [ "obj-60", 0 ],
					"hidden" : 0,
					"midpoints" : [  ]
				}

			}
, 			{
				"patchline" : 				{
					"source" : [ "obj-69", 1 ],
					"destination" : [ "obj-59", 0 ],
					"hidden" : 0,
					"midpoints" : [  ]
				}

			}
, 			{
				"patchline" : 				{
					"source" : [ "obj-69", 2 ],
					"destination" : [ "obj-7", 0 ],
					"hidden" : 0,
					"midpoints" : [  ]
				}

			}
, 			{
				"patchline" : 				{
					"source" : [ "obj-69", 3 ],
					"destination" : [ "obj-8", 0 ],
					"hidden" : 0,
					"midpoints" : [  ]
				}

			}
, 			{
				"patchline" : 				{
					"source" : [ "obj-70", 0 ],
					"destination" : [ "obj-60", 0 ],
					"hidden" : 0,
					"midpoints" : [  ]
				}

			}
, 			{
				"patchline" : 				{
					"source" : [ "obj-70", 1 ],
					"destination" : [ "obj-59", 0 ],
					"hidden" : 0,
					"midpoints" : [  ]
				}

			}
, 			{
				"patchline" : 				{
					"source" : [ "obj-70", 2 ],
					"destination" : [ "obj-7", 0 ],
					"hidden" : 0,
					"midpoints" : [  ]
				}

			}
, 			{
				"patchline" : 				{
					"source" : [ "obj-70", 3 ],
					"destination" : [ "obj-8", 0 ],
					"hidden" : 0,
					"midpoints" : [  ]
				}

			}
, 			{
				"patchline" : 				{
					"source" : [ "obj-71", 0 ],
					"destination" : [ "obj-60", 0 ],
					"hidden" : 0,
					"midpoints" : [  ]
				}

			}
, 			{
				"patchline" : 				{
					"source" : [ "obj-71", 1 ],
					"destination" : [ "obj-59", 0 ],
					"hidden" : 0,
					"midpoints" : [  ]
				}

			}
, 			{
				"patchline" : 				{
					"source" : [ "obj-71", 2 ],
					"destination" : [ "obj-7", 0 ],
					"hidden" : 0,
					"midpoints" : [  ]
				}

			}
, 			{
				"patchline" : 				{
					"source" : [ "obj-71", 3 ],
					"destination" : [ "obj-8", 0 ],
					"hidden" : 0,
					"midpoints" : [  ]
				}

			}
, 			{
				"patchline" : 				{
					"source" : [ "obj-9", 0 ],
					"destination" : [ "obj-31", 0 ],
					"hidden" : 0,
					"midpoints" : [  ]
				}

			}
, 			{
				"patchline" : 				{
					"source" : [ "obj-58", 1 ],
					"destination" : [ "obj-65", 0 ],
					"hidden" : 0,
					"midpoints" : [  ]
				}

			}
, 			{
				"patchline" : 				{
					"source" : [ "obj-58", 2 ],
					"destination" : [ "obj-66", 0 ],
					"hidden" : 0,
					"midpoints" : [  ]
				}

			}
, 			{
				"patchline" : 				{
					"source" : [ "obj-58", 3 ],
					"destination" : [ "obj-67", 0 ],
					"hidden" : 0,
					"midpoints" : [  ]
				}

			}
, 			{
				"patchline" : 				{
					"source" : [ "obj-58", 4 ],
					"destination" : [ "obj-68", 0 ],
					"hidden" : 0,
					"midpoints" : [  ]
				}

			}
, 			{
				"patchline" : 				{
					"source" : [ "obj-58", 5 ],
					"destination" : [ "obj-69", 0 ],
					"hidden" : 0,
					"midpoints" : [  ]
				}

			}
, 			{
				"patchline" : 				{
					"source" : [ "obj-58", 6 ],
					"destination" : [ "obj-70", 0 ],
					"hidden" : 0,
					"midpoints" : [  ]
				}

			}
, 			{
				"patchline" : 				{
					"source" : [ "obj-58", 7 ],
					"destination" : [ "obj-71", 0 ],
					"hidden" : 0,
					"midpoints" : [  ]
				}

			}
 ]
	}

}
